<svg xmlns="http://www.w3.org/2000/svg" xmlns:xlink="http://www.w3.org/1999/xlink" version="1.1" id="Layer_1" x="0" y="0" viewBox="0 0 800 800" xml:space="preserve" enable-background="new 0 0 800 800">
  <style type="text/css">
    
    .st0{fill:#7ABCCE;}
    .st1{fill:#6AA9B7;}
    .st2{fill:#BBE8F2;}
    .st3{fill:#4D7D91;}
    .st4{fill:#5B92A5;}
    .st5{fill:#506F83;}
    .st6{fill:#161920;}
    .st7{fill:#1D2128;}
    .st8{fill:#2F4554;}
    .st9{fill:#CCAC90;}
    .st10{fill:#EDD2B6;}
    .st11{fill:#DDBB9D;}
    .st12{fill:#406A78;}
    .st13{fill:#FFFFFF;}
    .st14{fill:#F3847C;}
    .st15{fill:#EFD4B7;}
    .st16{fill:#7B563E;}
    .st17{fill:none;}
    .st18{fill:#D5D3D2;}
    .st19{fill:#C2C0BF;}
    .st20{fill:#E77A7A;}
    .st21{fill:#1D1510;}
    .st22{fill:#204D4F;}
    .st23{fill:#4AB3CC;}
    .st24{fill:#2F3A4C;}
    .st25{fill:#4F5D80;}
    .st26{fill:#475570;}

  </style>
  <rect class="st0" width="800" height="800"/>
  <path class="st1" d="M799.1 766.6v-25h0.9v-7h-0.9v-25h0.9v-7h-0.9v-25h0.9v-7h-0.9v-25h0.9v-7h-0.9v-25h0.9v-7h-0.9v-25h0.9v-7h-0.9v-25h0.9v-65.2l-29.2-32.1v-78.7H683v79.5l-63.8 70.3v276.4H800v-32.9H799.1zM630.6 766.6h-8v-25h8V766.6zM630.6 734.6h-8v-25h8V734.6zM630.6 702.6h-8v-25h8V702.6zM630.6 670.5h-8v-25h8V670.5zM630.6 638.5h-8v-25h8V638.5zM630.6 606.5h-8v-25h8V606.5zM630.6 574.4h-8v-25h8V574.4zM643 766.6h-8v-25h8V766.6zM643 734.6h-8v-25h8V734.6zM643 702.6h-8v-25h8V702.6zM643 670.5h-8v-25h8V670.5zM643 638.5h-8v-25h8V638.5zM643 606.5h-8v-25h8V606.5zM643 574.4h-8v-25h8V574.4zM655.4 766.6h-8v-25h8V766.6zM655.4 734.6h-8v-25h8V734.6zM655.4 702.6h-8v-25h8V702.6zM655.4 670.5h-8v-25h8V670.5zM655.4 638.5h-8v-25h8V638.5zM655.4 606.5h-8v-25h8V606.5zM655.4 574.4h-8v-25h8V574.4zM667.9 766.6h-8v-25h8V766.6zM667.9 734.6h-8v-25h8V734.6zM667.9 702.6h-8v-25h8V702.6zM667.9 670.5h-8v-25h8V670.5zM667.9 638.5h-8v-25h8V638.5zM667.9 606.5h-8v-25h8V606.5zM667.9 574.4h-8v-25h8V574.4zM680.3 766.6h-8v-25h8V766.6zM680.3 734.6h-8v-25h8V734.6zM680.3 702.6h-8v-25h8V702.6zM680.3 670.5h-8v-25h8V670.5zM680.3 638.5h-8v-25h8V638.5zM680.3 606.5h-8v-25h8V606.5zM680.3 574.4h-8v-25h8V574.4zM759.6 752.6h-63.2v-13.7h63.2V752.6zM759.6 706.4h-63.2v-13.7h63.2V706.4zM759.6 660.3h-63.2v-13.7h63.2V660.3zM759.6 614.2h-63.2v-13.7h63.2V614.2zM759.6 568h-63.2v-13.7h63.2V568zM759.6 521.9h-63.2v-13.7h63.2V521.9zM759.6 475.7h-63.2v-13.7h63.2V475.7zM759.6 429.6h-63.2v-13.7h63.2V429.6zM782.3 766.6h-8v-25h8V766.6zM782.3 734.6h-8v-25h8V734.6zM782.3 702.6h-8v-25h8V702.6zM782.3 670.5h-8v-25h8V670.5zM782.3 638.5h-8v-25h8V638.5zM782.3 606.5h-8v-25h8V606.5zM782.3 574.4h-8v-25h8V574.4zM794.7 766.6h-8v-25h8V766.6zM794.7 734.6h-8v-25h8V734.6zM794.7 702.6h-8v-25h8V702.6zM794.7 670.5h-8v-25h8V670.5zM794.7 638.5h-8v-25h8V638.5zM794.7 606.5h-8v-25h8V606.5zM794.7 574.4h-8v-25h8V574.4z"/>
  <path class="st1" d="M578 532.4V416.7H407.6v-14.9h-31.1v14.9h-17.7v115.7h-92.9v-4h-52.2v14L185 585.7V348.2h-0.1 -18.4v-0.1 -17.9h-1.6 -23.1V330v-42.2h-8.7V203h-6v84.8H119V330v0.2h-8H94.6v17.9 0.1h-0.3H80.7h-7.4v172.9l0 0 -62.6-68.9v-78.7H0v426.2h221.4v-53.2h36.7v53.2h183.3v-91.1h53.9v91.1h126.1V532.4H578zM22.1 766.6h-8v-25h8V766.6zM22.1 734.6h-8v-25h8V734.6zM22.1 702.6h-8v-25h8V702.6zM22.1 670.5h-8v-25h8V670.5zM22.1 638.5h-8v-25h8V638.5zM22.1 606.5h-8v-25h8V606.5zM22.1 574.4h-8v-25h8V574.4zM34.5 766.6h-8v-25h8V766.6zM34.5 734.6h-8v-25h8V734.6zM34.5 702.6h-8v-25h8V702.6zM34.5 670.5h-8v-25h8V670.5zM34.5 638.5h-8v-25h8V638.5zM34.5 606.5h-8v-25h8V606.5zM34.5 574.4h-8v-25h8V574.4zM47 766.6h-8v-25h8V766.6zM47 734.6h-8v-25h8V734.6zM47 702.6h-8v-25h8V702.6zM47 670.5h-8v-25h8V670.5zM47 638.5h-8v-25h8V638.5zM47 606.5h-8v-25h8V606.5zM47 574.4h-8v-25h8V574.4zM59.4 766.6h-8v-25h8V766.6zM59.4 734.6h-8v-25h8V734.6zM59.4 702.6h-8v-25h8V702.6zM59.4 670.5h-8v-25h8V670.5zM59.4 638.5h-8v-25h8V638.5zM59.4 606.5h-8v-25h8V606.5zM59.4 574.4h-8v-25h8V574.4zM71.8 766.6h-8v-25h8V766.6zM71.8 734.6h-8v-25h8V734.6zM71.8 702.6h-8v-25h8V702.6zM71.8 670.5h-8v-25h8V670.5zM71.8 638.5h-8v-25h8V638.5zM71.8 606.5h-8v-25h8V606.5zM71.8 574.4h-8v-25h8V574.4zM78.2 355.2h12.9v14H78.2V355.2zM91.4 407.6v14H78.5v-14H91.4zM78.2 499.6h12.9v14H78.2V499.6zM91.4 606v14H78.4v-14H91.4zM76.1 552.3H89v14H76.1V552.3zM75.2 662.4h12.3v14H75.2V662.4zM91.6 735.6H78.7v-14h12.9V735.6zM150 348.1v-13.3h12.6v13.3 1.1H150V348.1zM146.2 630.8v-17h16.5v17H146.2zM159.7 660.8v18.4h-16.1v-18.4H159.7zM162.4 581.7h-16.1v-18.4h16.1V581.7zM161.7 510.3h-16.1v-18.4h16.1V510.3zM155.1 462h-16.5v-17h16.5V462zM133.4 372.2h12.9v14h-12.9V372.2zM132.5 539.4h16.1v18h-16.1V539.4zM135.9 563.3v18.4h-16.1v-18.4H135.9zM116 348.1v-13.3h12.9v13.3 0.7H116V348.1zM116.3 563.3v18.4h-16.1v-18.4H116.3zM100.1 372.2h12.6v14h-12.6V372.2zM100.1 407.6h12.6v14h-12.6V407.6zM99.3 468h16.1v18.4H99.3V468zM97.7 515.8h16.1v17.9H97.7V515.8zM97.7 636.8h16.1v18.4H97.7V636.8zM115.2 684.7v17.9H99.1v-17.9H115.2zM114.1 774.8H97.9v-18.4h16.1V774.8zM127.9 750.5h-16.1v-18.4h16.1V750.5zM132.5 708.2h16.1v18h-16.1V708.2zM162.8 750.5h-16.1v-18.4h16.1V750.5zM162.9 421.6h-12.6v-14h12.6V421.6zM167.1 355.2h12.6v14h-12.6V355.2zM182.6 431.3v14h-12.9v-14H182.6zM167.9 505.1h12.9v14h-12.9V505.1zM182.6 578v11.3 2.8h-1.8 -11.1v-14H182.6zM181 723h-3.2 -9.8v-14h9.8 3.2V723zM183.6 658.7h-0.8 -4.9 -7.2v-14h7.2 4.9 0.8V658.7zM319.9 540.7h27.9v31h-27.9V540.7zM319.9 580.4h27.9v31h-27.9V580.4zM319.9 620.1h27.9v31h-27.9V620.1zM319.9 659.8h27.9v19.8h-27.9V659.8zM230.8 556.5h18v31h-18V556.5zM293.3 730.5v8.7h-24.2 -6 -76.9v-20.7h76.9 6 6.6 17.5V730.5zM293.3 690.8v8.7 3.7h-17.5 -6.6 -6 -76.9v-20.7h76.9 6 6.6 17.5V690.8zM293.3 651.1v8.7 7.5h-17.5 -6.6 -6 -76.9v-20.7h76.9 6 6.6 17.5V651.1zM293.3 611.4v8.7 11.2h-17.5 -6.6 -6 -76.9v-20.7h76.9 6 6.6 17.5V611.4zM303.7 679.6h-2v-19.8h2V679.6zM303.7 651.1h-2v-31h2V651.1zM303.7 611.4h-2v-15l-10.6-16h12.6V611.4zM303.7 571.7h-18.4l-9.6-14.4v-16.6h27.9V571.7zM327.5 770.3v13.7h-18.9v-21h11.4 7.5V770.3zM327.5 739.3v12.6h-7.5 -11.4v-21h18.9V739.3zM327.5 699.6v20.9h-7.5 -11.4v-21L327.5 699.6 327.5 699.6zM357.2 783.9h-6.8 -12.1v-13.7 -7.3h9.6 2.6 6.8V783.9zM357.2 751.9h-6.8 -2.6 -9.6v-12.6 -8.4h12.1 6.8V751.9zM357.2 720.5h-6.8 -2.6 -9.6v-20.9 -0.1h12.1 6.8V720.5zM387 783.9h-18.6 -0.3v-21h0.3H387V783.9zM387 751.9h-18.6 -0.3v-21h0.3H387V751.9zM387 720.5h-18.6 -0.3v-21h0.3H387V720.5zM416.7 783.9h-18.9v-21h18.9V783.9zM416.7 751.9h-18.9v-21h18.9V751.9zM416.7 720.5h-18.9v-21h18.9V720.5zM426.7 690.6H425v-11h-50.5v-6.9h52.2V690.6zM426.7 662h-52.2v-17.9h52.2V662zM426.7 633.5h-52.2v-17.9h52.2V633.5zM426.7 606.4h-52.2v-17.9h52.2V606.4zM426.7 535.6h-52.2v-17.9h52.2V535.6zM426.7 507h-52.2v-17.9h52.2V507zM426.7 478.4h-52.2v-17.9h52.2V478.4zM494.5 690.6h-52.2v-17.9h52.2V690.6zM494.5 662h-52.2v-17.9h52.2V662zM494.5 633.5h-52.2v-17.9h52.2V633.5zM494.5 606.4h-52.2v-17.9h52.2V606.4zM494.5 535.6h-52.2v-17.9h52.2V535.6zM494.5 507h-52.2v-17.9h52.2V507zM494.5 478.4h-52.2v-17.9h52.2V478.4zM510.1 460.5h52.2v17.9h-52.2V460.5zM510.1 489.1h52.2V507h-52.2V489.1zM524.1 690.6h-13.9v-17.9h13.9V690.6zM524.1 662h-13.9v-17.9h13.9V662zM524.1 633.5h-13.9v-17.9h13.9V633.5zM524.1 606.4h-13.9v-17.9h13.9V606.4zM524.1 535.6h-13.9v-17.9h52.2v14.6h-38.3V535.6zM564.6 770.3L564.6 770.3h-27.9v-31h27.9 0V770.3zM564.6 730.5L564.6 730.5h-27.9v-31h27.9 0V730.5zM564.6 690.8L564.6 690.8h-27.9v-0.2 -17.9V662v-2.2h25.7 2.2 0V690.8zM564.6 651.1L564.6 651.1h-2.3 -25.7v-7 -10.7 -13.3h25.7 2.2 0V651.1zM564.6 611.4L564.6 611.4h-27.9v-5 -17.9 -8.1h27.9 0V611.4zM564.6 571.7L564.6 571.7h-27.9v-31h27.9 0V571.7zM608.8 770.3h-27.9v-31h27.9V770.3zM608.8 730.5h-27.9v-31h27.9V730.5zM608.8 690.8h-27.9v-31h27.9V690.8zM608.8 651.1h-27.9v-31h27.9V651.1zM608.8 611.4h-27.9v-31h27.9V611.4zM580.9 571.7v-31h27.9v31H580.9z"/>
  <g id="rain1" class="rain1">
    <path class="st2" d="M14.5 38.7c0-2-0.1-4.5-0.2-7.2 -0.4-8.7-1.5-15-2.4-36.5 -1 21.5-2 27.8-2.4 36.5 -0.1 2.7-0.2 5.1-0.2 7.2 0 4 1.2 5.8 2.6 5.8S14.5 42.7 14.5 38.7z"/>
    <path class="st2" d="M79.4 66.3c0-2-0.1-4.5-0.2-7.2 -0.4-8.7-1.5-15-2.4-36.5 -1 21.5-2 27.8-2.4 36.5 -0.1 2.7-0.2 5.1-0.2 7.2 0 4 1.2 5.8 2.6 5.8C78.3 72.1 79.4 70.3 79.4 66.3z"/>
    <path class="st2" d="M144.3 39.5c0-2-0.1-4.5-0.2-7.2 -0.4-8.7-1.5-15-2.4-36.5 -1 21.5-2 27.8-2.4 36.5 -0.1 2.7-0.2 5.1-0.2 7.2 0 4 1.2 5.8 2.6 5.8S144.3 43.5 144.3 39.5z"/>
    <path class="st2" d="M274.2 52.9c0-2.1-0.1-4.5-0.2-7.2 -0.4-8.7-1.5-15-2.4-36.5 -1 21.5-2 27.8-2.4 36.5 -0.1 2.7-0.2 5.1-0.2 7.2 0 4 1.2 5.8 2.6 5.8C273 58.7 274.2 56.9 274.2 52.9z"/>
    <path class="st2" d="M209.2 80.1c0-2-0.1-4.5-0.2-7.2 -0.4-8.7-1.5-15-2.4-36.5 -1 21.5-2 27.8-2.4 36.5 -0.1 2.7-0.2 5.1-0.2 7.2 0 4 1.2 5.8 2.6 5.8C208.1 85.9 209.2 84.1 209.2 80.1z"/>
    <path class="st2" d="M339.1 83.8c0-2-0.1-4.5-0.2-7.2 -0.4-8.7-1.5-15-2.4-36.5 -1 21.5-2 27.8-2.4 36.5 -0.1 2.7-0.2 5.1-0.2 7.2 0 4 1.2 5.8 2.6 5.8C337.9 89.6 339.1 87.8 339.1 83.8z"/>
    <path class="st2" d="M404 46.9c0-2-0.1-4.5-0.2-7.2 -0.4-8.7-1.5-15-2.4-36.5 -1 21.5-2 27.8-2.4 36.5 -0.1 2.7-0.2 5.1-0.2 7.2 0 4 1.2 5.8 2.6 5.8C402.8 52.7 404 50.9 404 46.9z"/>
    <path class="st2" d="M468.9 93.2c0-2-0.1-4.5-0.2-7.2 -0.4-8.7-1.5-15-2.4-36.5 -1 21.5-2 27.8-2.4 36.5 -0.1 2.7-0.2 5.1-0.2 7.2 0 4 1.2 5.8 2.6 5.8C467.8 99.1 468.9 97.3 468.9 93.2z"/>
    <path class="st2" d="M533.8 55.2c0-2-0.1-4.5-0.2-7.2 -0.4-8.7-1.5-15-2.4-36.5 -1 21.5-2 27.8-2.4 36.5 -0.1 2.7-0.2 5.1-0.2 7.2 0 4 1.2 5.8 2.6 5.8C532.7 61 533.8 59.2 533.8 55.2z"/>
    <path class="st2" d="M598.7 93.3c0-2-0.1-4.5-0.2-7.2 -0.4-8.7-1.5-15-2.4-36.5 -1 21.5-2 27.8-2.4 36.5 -0.1 2.7-0.2 5.1-0.2 7.2 0 4 1.2 5.8 2.6 5.8C597.6 99.1 598.7 97.3 598.7 93.3z"/>
    <path class="st2" d="M663.7 52.2c0-2-0.1-4.5-0.2-7.2 -0.4-8.7-1.5-15-2.4-36.5 -1 21.5-2 27.8-2.4 36.5 -0.1 2.7-0.2 5.1-0.2 7.2 0 4 1.2 5.8 2.6 5.8C662.5 58 663.7 56.2 663.7 52.2z"/>
    <path class="st2" d="M728.6 104.4c0-2-0.1-4.5-0.2-7.2 -0.4-8.7-1.5-15-2.4-36.5 -1 21.5-2 27.8-2.4 36.5 -0.1 2.7-0.2 5.1-0.2 7.2 0 4 1.2 5.8 2.6 5.8C727.4 110.2 728.6 108.5 728.6 104.4z"/>
    <path class="st2" d="M793.5 63.4c0-2.1-0.1-4.5-0.2-7.2 -0.4-8.7-1.5-15-2.4-36.5 -1 21.5-2 27.8-2.4 36.5 -0.1 2.7-0.2 5.1-0.2 7.2 0 4 1.2 5.8 2.6 5.8C792.3 69.2 793.5 67.4 793.5 63.4z"/>
    <path class="st2" d="M765.5 126.9c0-2 0.1-4.5 0.2-7.2 0.4-8.7 1.5-15 2.4-36.5 1 21.5 2 27.8 2.4 36.5 0.1 2.7 0.2 5.1 0.2 7.2 0 4-1.2 5.8-2.6 5.8C766.6 132.7 765.5 130.9 765.5 126.9z"/>
    <path class="st2" d="M700.6 154.5c0-2.1 0.1-4.5 0.2-7.2 0.4-8.7 1.5-15 2.4-36.5 1 21.5 2 27.8 2.4 36.5 0.1 2.7 0.2 5.1 0.2 7.2 0 4-1.2 5.8-2.6 5.8C701.7 160.3 700.6 158.5 700.6 154.5z"/>
    <path class="st2" d="M637 124c0-2 0.1-4.5 0.2-7.2 0.4-8.7 1.5-15 2.4-36.5 1 21.5 2 27.8 2.4 36.5 0.1 2.7 0.2 5.1 0.2 7.2 0 4-1.2 5.8-2.6 5.8C638.1 129.8 637 128 637 124z"/>
    <path class="st2" d="M519.3 125.1c0-2.1 0.1-4.5 0.2-7.2 0.4-8.7 1.5-15 2.4-36.5 1 21.5 2 27.8 2.4 36.5 0.1 2.7 0.2 5.1 0.2 7.2 0 4-1.2 5.8-2.6 5.8C520.5 130.9 519.3 129.2 519.3 125.1z"/>
    <path class="st2" d="M572.1 164.6c0-2 0.1-4.5 0.2-7.2 0.4-8.7 1.5-15 2.4-36.5 1 21.5 2 27.8 2.4 36.5 0.1 2.7 0.2 5.1 0.2 7.2 0 4-1.2 5.8-2.6 5.8S572.1 168.6 572.1 164.6z"/>
    <path class="st2" d="M456.7 175.2c0-2 0.1-4.5 0.2-7.2 0.4-8.7 1.5-15 2.4-36.5 1 21.5 2 27.8 2.4 36.5 0.1 2.7 0.2 5.1 0.2 7.2 0 4-1.2 5.8-2.6 5.8C457.9 181 456.7 179.2 456.7 175.2z"/>
    <path class="st2" d="M374.8 115.6c0-2 0.1-4.5 0.2-7.2 0.4-8.7 1.5-15 2.4-36.5 1 21.5 2 27.8 2.4 36.5 0.1 2.7 0.2 5.1 0.2 7.2 0 4-1.2 5.8-2.6 5.8C376 121.4 374.8 119.6 374.8 115.6z"/>
    <path class="st2" d="M308.7 153.7c0-2.1 0.1-4.5 0.2-7.2 0.4-8.7 1.5-15 2.4-36.5 1 21.5 2 27.8 2.4 36.5 0.1 2.7 0.2 5.1 0.2 7.2 0 4-1.2 5.8-2.6 5.8C309.9 159.5 308.7 157.7 308.7 153.7z"/>
    <path class="st2" d="M347.7 186.7c0-2.1 0.1-4.5 0.2-7.2 0.4-8.7 1.5-15 2.4-36.5 1 21.5 2 27.8 2.4 36.5 0.1 2.7 0.2 5.1 0.2 7.2 0 4-1.2 5.8-2.6 5.8C348.9 192.5 347.7 190.7 347.7 186.7z"/>
    <path class="st2" d="M259.7 127.5c0-2 0.1-4.5 0.2-7.2 0.4-8.7 1.5-15 2.4-36.5 1 21.5 2 27.8 2.4 36.5 0.1 2.7 0.2 5.1 0.2 7.2 0 4-1.2 5.8-2.6 5.8C260.8 133.3 259.7 131.5 259.7 127.5z"/>
    <path class="st2" d="M194.7 165.5c0-2 0.1-4.5 0.2-7.2 0.4-8.7 1.5-15 2.4-36.5 1 21.5 2 27.8 2.4 36.5 0.1 2.7 0.2 5.1 0.2 7.2 0 4-1.2 5.8-2.6 5.8C195.9 171.3 194.7 169.5 194.7 165.5z"/>
    <path class="st2" d="M129.8 139.4c0-2 0.1-4.5 0.2-7.2 0.4-8.7 1.5-15 2.4-36.5 1 21.5 2 27.8 2.4 36.5 0.1 2.7 0.2 5.1 0.2 7.2 0 4-1.2 5.8-2.6 5.8C131 145.2 129.8 143.5 129.8 139.4z"/>
    <path class="st2" d="M64.9 176.7c0-2.1 0.1-4.5 0.2-7.2 0.4-8.7 1.5-15 2.4-36.5 1 21.5 2 27.8 2.4 36.5 0.1 2.7 0.2 5.1 0.2 7.2 0 4-1.2 5.8-2.6 5.8C66.1 182.5 64.9 180.7 64.9 176.7z"/>
    <path class="st2" d="M6 135.7c0-2.1 0.1-4.5 0.2-7.2 0.4-8.7 1.5-15 2.4-36.5 1 21.5 2 27.8 2.4 36.5 0.1 2.7 0.2 5.1 0.2 7.2 0 4-1.2 5.8-2.6 5.8C7.2 141.5 6 139.7 6 135.7z"/>
    <path class="st2" d="M28.5 219.9c0-2.1-0.1-4.5-0.2-7.2 -0.4-8.7-1.5-15-2.4-36.5 -1 21.5-2 27.8-2.4 36.5 -0.1 2.7-0.2 5.1-0.2 7.2 0 4 1.2 5.8 2.6 5.8C27.4 225.7 28.5 223.9 28.5 219.9z"/>
    <path class="st2" d="M93.4 247.5c0-2-0.1-4.5-0.2-7.2 -0.4-8.7-1.5-15-2.4-36.5 -1 21.5-2 27.8-2.4 36.5 -0.1 2.7-0.2 5.1-0.2 7.2 0 4 1.2 5.8 2.6 5.8C92.3 253.3 93.4 251.5 93.4 247.5z"/>
    <path class="st2" d="M158.3 220.7c0-2.1-0.1-4.5-0.2-7.2 -0.4-8.7-1.5-15-2.4-36.5 -1 21.5-2 27.8-2.4 36.5 -0.1 2.7-0.2 5.1-0.2 7.2 0 4 1.2 5.8 2.6 5.8C157.2 226.5 158.3 224.7 158.3 220.7z"/>
    <path class="st2" d="M288.2 234.1c0-2.1-0.1-4.5-0.2-7.2 -0.4-8.7-1.5-15-2.4-36.5 -1 21.5-2 27.8-2.4 36.5 -0.1 2.7-0.2 5.1-0.2 7.2 0 4 1.2 5.8 2.6 5.8C287 239.9 288.2 238.1 288.2 234.1z"/>
    <path class="st2" d="M223.3 261.3c0-2-0.1-4.5-0.2-7.2 -0.4-8.7-1.5-15-2.4-36.5 -1 21.5-2 27.8-2.4 36.5 -0.1 2.7-0.2 5.1-0.2 7.2 0 4 1.2 5.8 2.6 5.8C222.1 267.1 223.3 265.4 223.3 261.3z"/>
    <path class="st2" d="M353.1 265c0-2-0.1-4.5-0.2-7.2 -0.4-8.7-1.5-15-2.4-36.5 -1 21.5-2 27.8-2.4 36.5 -0.1 2.7-0.2 5.1-0.2 7.2 0 4 1.2 5.8 2.6 5.8C351.9 270.8 353.1 269 353.1 265z"/>
    <path class="st2" d="M418 228.1c0-2.1-0.1-4.5-0.2-7.2 -0.4-8.7-1.5-15-2.4-36.5 -1 21.5-2 27.8-2.4 36.5 -0.1 2.7-0.2 5.1-0.2 7.2 0 4 1.2 5.8 2.6 5.8C416.9 233.9 418 232.2 418 228.1z"/>
    <path class="st2" d="M495.9 240.5c0-2.1-0.1-4.5-0.2-7.2 -0.4-8.7-1.5-15-2.4-36.5 -1 21.5-2 27.8-2.4 36.5 -0.1 2.7-0.2 5.1-0.2 7.2 0 4 1.2 5.8 2.6 5.8C494.8 246.3 495.9 244.5 495.9 240.5z"/>
    <path class="st2" d="M547.8 236.4c0-2.1-0.1-4.5-0.2-7.2 -0.4-8.7-1.5-15-2.4-36.5 -1 21.5-2 27.8-2.4 36.5 -0.1 2.7-0.2 5.1-0.2 7.2 0 4 1.2 5.8 2.6 5.8C546.7 242.2 547.8 240.5 547.8 236.4z"/>
    <path class="st2" d="M612.8 225.9c0-2.1-0.1-4.5-0.2-7.2 -0.4-8.7-1.5-15-2.4-36.5 -1 21.5-2 27.8-2.4 36.5 -0.1 2.7-0.2 5.1-0.2 7.2 0 4 1.2 5.8 2.6 5.8C611.6 231.7 612.8 229.9 612.8 225.9z"/>
    <path class="st2" d="M677.7 199.9c0-2-0.1-4.5-0.2-7.2 -0.4-8.7-1.5-15-2.4-36.5 -1 21.5-2 27.8-2.4 36.5 -0.1 2.7-0.2 5.1-0.2 7.2 0 4 1.2 5.8 2.6 5.8C676.5 205.7 677.7 203.9 677.7 199.9z"/>
    <path class="st2" d="M743.3 242.5c0-2.1-0.1-4.5-0.2-7.2 -0.4-8.7-1.5-15-2.4-36.5 -1 21.5-2 27.8-2.4 36.5 -0.1 2.7-0.2 5.1-0.2 7.2 0 4 1.2 5.8 2.6 5.8C742.1 248.3 743.3 246.5 743.3 242.5z"/>
    <path class="st2" d="M788.8 186.8c0-2.1-0.1-4.5-0.2-7.2 -0.4-8.7-1.5-15-2.4-36.5 -1 21.5-2 27.8-2.4 36.5 -0.1 2.7-0.2 5.1-0.2 7.2 0 4 1.2 5.8 2.6 5.8C787.7 192.6 788.8 190.8 788.8 186.8z"/>
    <path class="st2" d="M749.1 305.2c0-2.1 0.1-4.5 0.2-7.2 0.4-8.7 1.5-15 2.4-36.5 1 21.5 2 27.8 2.4 36.5 0.1 2.7 0.2 5.1 0.2 7.2 0 4-1.2 5.8-2.6 5.8C750.3 311 749.1 309.2 749.1 305.2z"/>
    <path class="st2" d="M695.9 277.9c0-2 0.1-4.5 0.2-7.2 0.4-8.7 1.5-15 2.4-36.5 1 21.5 2 27.8 2.4 36.5 0.1 2.7 0.2 5.1 0.2 7.2 0 4-1.2 5.8-2.6 5.8C697 283.7 695.9 281.9 695.9 277.9z"/>
    <path class="st2" d="M651 256.6c0-2 0.1-4.5 0.2-7.2 0.4-8.7 1.5-15 2.4-36.5 1 21.5 2 27.8 2.4 36.5 0.1 2.7 0.2 5.1 0.2 7.2 0 4-1.2 5.8-2.6 5.8C652.2 262.4 651 260.7 651 256.6z"/>
    <path class="st2" d="M533.4 306.4c0-2.1 0.1-4.5 0.2-7.2 0.4-8.7 1.5-15 2.4-36.5 1 21.5 2 27.8 2.4 36.5 0.1 2.7 0.2 5.1 0.2 7.2 0 4-1.2 5.8-2.6 5.8C534.5 312.2 533.4 310.4 533.4 306.4z"/>
    <path class="st2" d="M586.1 345.8c0-2 0.1-4.5 0.2-7.2 0.4-8.7 1.5-15 2.4-36.5 1 21.5 2 27.8 2.4 36.5 0.1 2.7 0.2 5.1 0.2 7.2 0 4-1.2 5.8-2.6 5.8S586.1 349.9 586.1 345.8z"/>
    <path class="st2" d="M449.7 326.4c0-2 0.1-4.5 0.2-7.2 0.4-8.7 1.5-15 2.4-36.5 1 21.5 2 27.8 2.4 36.5 0.1 2.7 0.2 5.1 0.2 7.2 0 4-1.2 5.8-2.6 5.8C450.9 332.2 449.7 330.4 449.7 326.4z"/>
    <path class="st2" d="M388.8 296.9c0-2.1 0.1-4.5 0.2-7.2 0.4-8.7 1.5-15 2.4-36.5 1 21.5 2 27.8 2.4 36.5 0.1 2.7 0.2 5.1 0.2 7.2 0 4-1.2 5.8-2.6 5.8C390 302.7 388.8 300.9 388.8 296.9z"/>
    <path class="st2" d="M322.7 334.9c0-2 0.1-4.5 0.2-7.2 0.4-8.7 1.5-15 2.4-36.5 1 21.5 2 27.8 2.4 36.5 0.1 2.7 0.2 5.1 0.2 7.2 0 4-1.2 5.8-2.6 5.8C323.9 340.7 322.7 338.9 322.7 334.9z"/>
    <path class="st2" d="M369.7 390.9c0-2 0.1-4.5 0.2-7.2 0.4-8.7 1.5-15 2.4-36.5 1 21.5 2 27.8 2.4 36.5 0.1 2.7 0.2 5.1 0.2 7.2 0 4-1.2 5.8-2.6 5.8C370.9 396.7 369.7 394.9 369.7 390.9z"/>
    <path class="st2" d="M493.7 382.9c0-2 0.1-4.5 0.2-7.2 0.4-8.7 1.5-15 2.4-36.5 1 21.5 2 27.8 2.4 36.5 0.1 2.7 0.2 5.1 0.2 7.2 0 4-1.2 5.8-2.6 5.8C494.9 388.7 493.7 386.9 493.7 382.9z"/>
    <path class="st2" d="M273.7 308.7c0-2 0.1-4.5 0.2-7.2 0.4-8.7 1.5-15 2.4-36.5 1 21.5 2 27.8 2.4 36.5 0.1 2.7 0.2 5.1 0.2 7.2 0 4-1.2 5.8-2.6 5.8C274.8 314.5 273.7 312.7 273.7 308.7z"/>
    <path class="st2" d="M208.8 346.8c0-2.1 0.1-4.5 0.2-7.2 0.4-8.7 1.5-15 2.4-36.5 1 21.5 2 27.8 2.4 36.5 0.1 2.7 0.2 5.1 0.2 7.2 0 4-1.2 5.8-2.6 5.8C209.9 352.6 208.8 350.8 208.8 346.8z"/>
    <path class="st2" d="M143.9 320.7c0-2 0.1-4.5 0.2-7.2 0.4-8.7 1.5-15 2.4-36.5 1 21.5 2 27.8 2.4 36.5 0.1 2.7 0.2 5.1 0.2 7.2 0 4-1.2 5.8-2.6 5.8C145 326.5 143.9 324.7 143.9 320.7z"/>
    <path class="st2" d="M78.9 358c0-2 0.1-4.5 0.2-7.2 0.4-8.7 1.5-15 2.4-36.5 1 21.5 2 27.8 2.4 36.5 0.1 2.7 0.2 5.1 0.2 7.2 0 4-1.2 5.8-2.6 5.8C80.1 363.8 78.9 362 78.9 358z"/>
    <path class="st2" d="M14 316.9c0-2.1 0.1-4.5 0.2-7.2 0.4-8.7 1.5-15 2.4-36.5 1 21.5 2 27.8 2.4 36.5 0.1 2.7 0.2 5.1 0.2 7.2 0 4-1.2 5.8-2.6 5.8C15.2 322.7 14 321 14 316.9z"/>
    <path class="st2" d="M17.5 421.3c0-2-0.1-4.5-0.2-7.2 -0.4-8.7-1.5-15-2.4-36.5 -1 21.5-2 27.8-2.4 36.5 -0.1 2.7-0.2 5.1-0.2 7.2 0 4 1.2 5.8 2.6 5.8S17.5 425.3 17.5 421.3z"/>
    <path class="st2" d="M82.4 448.9c0-2-0.1-4.5-0.2-7.2 -0.4-8.7-1.5-15-2.4-36.5 -1 21.5-2 27.8-2.4 36.5 -0.1 2.7-0.2 5.1-0.2 7.2 0 4 1.2 5.8 2.6 5.8C81.3 454.7 82.4 452.9 82.4 448.9z"/>
    <path class="st2" d="M147.3 422.1c0-2-0.1-4.5-0.2-7.2 -0.4-8.7-1.5-15-2.4-36.5 -1 21.5-2 27.8-2.4 36.5 -0.1 2.7-0.2 5.1-0.2 7.2 0 4 1.2 5.8 2.6 5.8S147.3 426.1 147.3 422.1z"/>
    <path class="st2" d="M278 406.9c0-2-0.1-4.4-0.2-7.1 -0.4-8.6-1.4-14.8-2.4-36 -0.9 21.2-2 27.4-2.4 36 -0.1 2.7-0.2 5.1-0.2 7.1 0 4 1.1 5.7 2.5 5.7C276.9 412.7 278 410.9 278 406.9z"/>
    <path class="st2" d="M214 461.8c0-2-0.1-4.4-0.2-7.1 -0.4-8.6-1.4-14.8-2.4-36 -0.9 21.2-2 27.4-2.4 36 -0.1 2.7-0.2 5.1-0.2 7.1 0 4 1.1 5.7 2.5 5.7S214 465.8 214 461.8z"/>
    <path class="st2" d="M342.1 465.4c0-2-0.1-4.4-0.2-7.1 -0.4-8.6-1.4-14.8-2.4-36 -0.9 21.2-2 27.4-2.4 36 -0.1 2.7-0.2 5.1-0.2 7.1 0 4 1.1 5.7 2.5 5.7C340.9 471.2 342.1 469.4 342.1 465.4z"/>
    <path class="st2" d="M425 410.5c0-2.1-0.1-4.5-0.2-7.2 -0.4-8.7-1.5-15-2.4-36.5 -1 21.5-2 27.8-2.4 36.5 -0.1 2.7-0.2 5.1-0.2 7.2 0 4 1.2 5.8 2.6 5.8C423.8 416.3 425 414.6 425 410.5z"/>
    <path class="st2" d="M471.9 475.9c0-2-0.1-4.5-0.2-7.2 -0.4-8.7-1.5-15-2.4-36.5 -1 21.5-2 27.8-2.4 36.5 -0.1 2.7-0.2 5.1-0.2 7.2 0 4 1.2 5.8 2.6 5.8C470.8 481.7 471.9 479.9 471.9 475.9z"/>
    <path class="st2" d="M560.8 437.8c0-2-0.1-4.5-0.2-7.2 -0.4-8.7-1.5-15-2.4-36.5 -1 21.5-2 27.8-2.4 36.5 -0.1 2.7-0.2 5.1-0.2 7.2 0 4 1.2 5.8 2.6 5.8C559.7 443.6 560.8 441.8 560.8 437.8z"/>
    <path class="st2" d="M660.7 333.9c0-2-0.1-4.5-0.2-7.2 -0.4-8.7-1.5-15-2.4-36.5 -1 21.5-2 27.8-2.4 36.5 -0.1 2.7-0.2 5.1-0.2 7.2 0 4 1.2 5.8 2.6 5.8C659.5 339.7 660.7 337.9 660.7 333.9z"/>
    <path class="st2" d="M725.6 371.2c0-2-0.1-4.5-0.2-7.2 -0.4-8.7-1.5-15-2.4-36.5 -1 21.5-2 27.8-2.4 36.5 -0.1 2.7-0.2 5.1-0.2 7.2 0 4 1.2 5.8 2.6 5.8C724.4 377 725.6 375.2 725.6 371.2z"/>
    <path class="st2" d="M790.5 330.2c0-2.1-0.1-4.5-0.2-7.2 -0.4-8.7-1.5-15-2.4-36.5 -1 21.5-2 27.8-2.4 36.5 -0.1 2.7-0.2 5.1-0.2 7.2 0 4 1.2 5.8 2.6 5.8C789.3 336 790.5 334.2 790.5 330.2z"/>
    <path class="st2" d="M762.5 393.7c0-2 0.1-4.5 0.2-7.2 0.4-8.7 1.5-15 2.4-36.5 1 21.5 2 27.8 2.4 36.5 0.1 2.7 0.2 5.1 0.2 7.2 0 4-1.2 5.8-2.6 5.8C763.6 399.5 762.5 397.7 762.5 393.7z"/>
    <path class="st2" d="M697.6 421.3c0-2 0.1-4.5 0.2-7.2 0.4-8.7 1.5-15 2.4-36.5 1 21.5 2 27.8 2.4 36.5 0.1 2.7 0.2 5.1 0.2 7.2 0 4-1.2 5.8-2.6 5.8C698.7 427.1 697.6 425.3 697.6 421.3z"/>
    <path class="st2" d="M634 390.7c0-2 0.1-4.5 0.2-7.2 0.4-8.7 1.5-15 2.4-36.5 1 21.5 2 27.8 2.4 36.5 0.1 2.7 0.2 5.1 0.2 7.2 0 4-1.2 5.8-2.6 5.8C635.1 396.5 634 394.7 634 390.7z"/>
    <path class="st2" d="M522.3 507.8c0-2.1 0.1-4.5 0.2-7.2 0.4-8.7 1.5-15 2.4-36.5 1 21.5 2 27.8 2.4 36.5 0.1 2.7 0.2 5.1 0.2 7.2 0 4-1.2 5.8-2.6 5.8C523.5 513.6 522.3 511.8 522.3 507.8z"/>
    <path class="st2" d="M477.3 590.8c0-2 0.1-4.5 0.2-7.2 0.4-8.7 1.5-15 2.4-36.5 1 21.5 2 27.8 2.4 36.5 0.1 2.7 0.2 5.1 0.2 7.2 0 4-1.2 5.8-2.6 5.8C478.5 596.6 477.3 594.8 477.3 590.8z"/>
    <path class="st2" d="M575.1 547.2c0-2 0.1-4.5 0.2-7.2 0.4-8.7 1.5-15 2.4-36.5 1 21.5 2 27.8 2.4 36.5 0.1 2.7 0.2 5.1 0.2 7.2 0 4-1.2 5.8-2.6 5.8C576.2 553 575.1 551.2 575.1 547.2z"/>
    <path class="st2" d="M438.7 527.8c0-2 0.1-4.5 0.2-7.2 0.4-8.7 1.5-15 2.4-36.5 1 21.5 2 27.8 2.4 36.5 0.1 2.7 0.2 5.1 0.2 7.2 0 4-1.2 5.8-2.6 5.8C439.9 533.6 438.7 531.8 438.7 527.8z"/>
    <path class="st2" d="M377.8 498.2c0-2.1 0.1-4.5 0.2-7.2 0.4-8.7 1.5-15 2.4-36.5 1 21.5 2 27.8 2.4 36.5 0.1 2.7 0.2 5.1 0.2 7.2 0 4-1.2 5.8-2.6 5.8C379 504 377.8 502.3 377.8 498.2z"/>
    <path class="st2" d="M312.1 534.4c0-2 0.1-4.4 0.2-7.1 0.4-8.6 1.4-14.8 2.4-36 0.9 21.2 2 27.4 2.4 36 0.1 2.7 0.2 5.1 0.2 7.1 0 4-1.1 5.7-2.5 5.7C313.3 540.1 312.1 538.4 312.1 534.4z"/>
    <path class="st2" d="M263.7 508.5c0-2 0.1-4.4 0.2-7.1 0.4-8.6 1.4-14.8 2.4-36 0.9 21.2 2 27.4 2.4 36 0.1 2.7 0.2 5.1 0.2 7.1 0 4-1.1 5.7-2.5 5.7C264.9 514.3 263.7 512.5 263.7 508.5z"/>
    <path class="st2" d="M197.8 548.2c0-2 0.1-4.5 0.2-7.2 0.4-8.7 1.5-15 2.4-36.5 1 21.5 2 27.8 2.4 36.5 0.1 2.7 0.2 5.1 0.2 7.2 0 4-1.2 5.8-2.6 5.8C198.9 554 197.8 552.2 197.8 548.2z"/>
    <path class="st2" d="M132.8 522.1c0-2 0.1-4.5 0.2-7.2 0.4-8.7 1.5-15 2.4-36.5 1 21.5 2 27.8 2.4 36.5 0.1 2.7 0.2 5.1 0.2 7.2 0 4-1.2 5.8-2.6 5.8C134 527.9 132.8 526.1 132.8 522.1z"/>
    <path class="st2" d="M67.9 559.3c0-2 0.1-4.5 0.2-7.2 0.4-8.7 1.5-15 2.4-36.5 1 21.5 2 27.8 2.4 36.5 0.1 2.7 0.2 5.1 0.2 7.2 0 4-1.2 5.8-2.6 5.8C69.1 565.2 67.9 563.4 67.9 559.3z"/>
    <path class="st2" d="M7 518.3c0-2 0.1-4.5 0.2-7.2 0.4-8.7 1.5-15 2.4-36.5 1 21.5 2 27.8 2.4 36.5 0.1 2.7 0.2 5.1 0.2 7.2 0 4-1.2 5.8-2.6 5.8C8.2 524.1 7 522.3 7 518.3z"/>
    <path class="st2" d="M21 618.2c0-2-0.1-4.5-0.2-7.2 -0.4-8.7-1.5-15-2.4-36.5 -1 21.5-2 27.8-2.4 36.5 -0.1 2.7-0.2 5.1-0.2 7.2 0 4 1.2 5.8 2.6 5.8C19.9 624 21 622.2 21 618.2z"/>
    <path class="st2" d="M85.9 645.8c0-2-0.1-4.5-0.2-7.2 -0.4-8.7-1.5-15-2.4-36.5 -1 21.5-2 27.8-2.4 36.5 -0.1 2.7-0.2 5.1-0.2 7.2 0 4 1.2 5.8 2.6 5.8C84.8 651.6 85.9 649.8 85.9 645.8z"/>
    <path class="st2" d="M150.8 619c0-2-0.1-4.5-0.2-7.2 -0.4-8.7-1.5-15-2.4-36.5 -1 21.5-2 27.8-2.4 36.5 -0.1 2.7-0.2 5.1-0.2 7.2 0 4 1.2 5.8 2.6 5.8C149.7 624.8 150.8 623 150.8 619z"/>
    <path class="st2" d="M278.7 603.4c0-2-0.1-4.5-0.2-7.2 -0.4-8.7-1.5-15-2.4-36.5 -1 21.5-2 27.8-2.4 36.5 -0.1 2.7-0.2 5.1-0.2 7.2 0 4 1.2 5.8 2.6 5.8S278.7 607.4 278.7 603.4z"/>
    <path class="st2" d="M215.8 659.6c0-2-0.1-4.5-0.2-7.2 -0.4-8.7-1.5-15-2.4-36.5 -1 21.5-2 27.8-2.4 36.5 -0.1 2.7-0.2 5.1-0.2 7.2 0 4 1.2 5.8 2.6 5.8C214.6 665.4 215.8 663.6 215.8 659.6z"/>
    <path class="st2" d="M345.6 663.3c0-2-0.1-4.5-0.2-7.2 -0.4-8.7-1.5-15-2.4-36.5 -1 21.5-2 27.8-2.4 36.5 -0.1 2.7-0.2 5.1-0.2 7.2 0 4 1.2 5.8 2.6 5.8C344.4 669.1 345.6 667.3 345.6 663.3z"/>
    <path class="st2" d="M410.5 626.4c0-2.1-0.1-4.5-0.2-7.2 -0.4-8.7-1.5-15-2.4-36.5 -1 21.5-2 27.8-2.4 36.5 -0.1 2.7-0.2 5.1-0.2 7.2 0 4 1.2 5.8 2.6 5.8C409.3 632.2 410.5 630.4 410.5 626.4z"/>
    <path class="st2" d="M355.5 590.4c0-2.1-0.1-4.5-0.2-7.2 -0.4-8.7-1.5-15-2.4-36.5 -1 21.5-2 27.8-2.4 36.5 -0.1 2.7-0.2 5.1-0.2 7.2 0 4 1.2 5.8 2.6 5.8C354.3 596.2 355.5 594.4 355.5 590.4z"/>
    <path class="st2" d="M475.4 672.7c0-2-0.1-4.5-0.2-7.2 -0.4-8.7-1.5-15-2.4-36.5 -1 21.5-2 27.8-2.4 36.5 -0.1 2.7-0.2 5.1-0.2 7.2 0 4 1.2 5.8 2.6 5.8C474.3 678.5 475.4 676.8 475.4 672.7z"/>
    <path class="st2" d="M540.3 634.7c0-2-0.1-4.5-0.2-7.2 -0.4-8.7-1.5-15-2.4-36.5 -1 21.5-2 27.8-2.4 36.5 -0.1 2.7-0.2 5.1-0.2 7.2 0 4 1.2 5.8 2.6 5.8C539.2 640.5 540.3 638.7 540.3 634.7z"/>
    <path class="st2" d="M605.3 672.7c0-2-0.1-4.5-0.2-7.2 -0.4-8.7-1.5-15-2.4-36.5 -1 21.5-2 27.8-2.4 36.5 -0.1 2.7-0.2 5.1-0.2 7.2 0 4 1.2 5.8 2.6 5.8C604.1 678.5 605.3 676.8 605.3 672.7z"/>
    <path class="st2" d="M670.2 646.7c0-2-0.1-4.5-0.2-7.2 -0.4-8.7-1.5-15-2.4-36.5 -1 21.5-2 27.8-2.4 36.5 -0.1 2.7-0.2 5.1-0.2 7.2 0 4 1.2 5.8 2.6 5.8S670.2 650.7 670.2 646.7z"/>
    <path class="st2" d="M634.2 594.7c0-2-0.1-4.5-0.2-7.2 -0.4-8.7-1.5-15-2.4-36.5 -1 21.5-2 27.8-2.4 36.5 -0.1 2.7-0.2 5.1-0.2 7.2 0 4 1.2 5.8 2.6 5.8S634.2 598.7 634.2 594.7z"/>
    <path class="st2" d="M735.1 683.9c0-2-0.1-4.5-0.2-7.2 -0.4-8.7-1.5-15-2.4-36.5 -1 21.5-2 27.8-2.4 36.5 -0.1 2.7-0.2 5.1-0.2 7.2 0 4 1.2 5.8 2.6 5.8C733.9 689.7 735.1 687.9 735.1 683.9z"/>
    <path class="st2" d="M792 642.9c0-2-0.1-4.5-0.2-7.2 -0.4-8.7-1.5-15-2.4-36.5 -1 21.5-2 27.8-2.4 36.5 -0.1 2.7-0.2 5.1-0.2 7.2 0 4 1.2 5.8 2.6 5.8C790.8 648.7 792 646.9 792 642.9z"/>
    <path class="st2" d="M772 706.4c0-2 0.1-4.5 0.2-7.2 0.4-8.7 1.5-15 2.4-36.5 1 21.5 2 27.8 2.4 36.5 0.1 2.7 0.2 5.1 0.2 7.2 0 4-1.2 5.8-2.6 5.8C773.1 712.2 772 710.4 772 706.4z"/>
    <path class="st2" d="M707.1 734c0-2 0.1-4.5 0.2-7.2 0.4-8.7 1.5-15 2.4-36.5 1 21.5 2 27.8 2.4 36.5 0.1 2.7 0.2 5.1 0.2 7.2 0 4-1.2 5.8-2.6 5.8C708.2 739.8 707.1 738 707.1 734z"/>
    <path class="st2" d="M643.5 703.5c0-2 0.1-4.5 0.2-7.2 0.4-8.7 1.5-15 2.4-36.5 1 21.5 2 27.8 2.4 36.5 0.1 2.7 0.2 5.1 0.2 7.2 0 4-1.2 5.8-2.6 5.8C644.6 709.3 643.5 707.5 643.5 703.5z"/>
    <path class="st2" d="M525.8 704.6c0-2 0.1-4.5 0.2-7.2 0.4-8.7 1.5-15 2.4-36.5 1 21.5 2 27.8 2.4 36.5 0.1 2.7 0.2 5.1 0.2 7.2 0 4-1.2 5.8-2.6 5.8C527 710.4 525.8 708.6 525.8 704.6z"/>
    <path class="st2" d="M578.6 744.1c0-2.1 0.1-4.5 0.2-7.2 0.4-8.7 1.5-15 2.4-36.5 1 21.5 2 27.8 2.4 36.5 0.1 2.7 0.2 5.1 0.2 7.2 0 4-1.2 5.8-2.6 5.8S578.6 748.1 578.6 744.1z"/>
    <path class="st2" d="M442.2 724.7c0-2 0.1-4.5 0.2-7.2 0.4-8.7 1.5-15 2.4-36.5 1 21.5 2 27.8 2.4 36.5 0.1 2.7 0.2 5.1 0.2 7.2 0 4-1.2 5.8-2.6 5.8C443.4 730.5 442.2 728.7 442.2 724.7z"/>
    <path class="st2" d="M381.3 695.1c0-2 0.1-4.5 0.2-7.2 0.4-8.7 1.5-15 2.4-36.5 1 21.5 2 27.8 2.4 36.5 0.1 2.7 0.2 5.1 0.2 7.2 0 4-1.2 5.8-2.6 5.8C382.5 700.9 381.3 699.1 381.3 695.1z"/>
    <path class="st2" d="M315.2 733.2c0-2 0.1-4.5 0.2-7.2 0.4-8.7 1.5-15 2.4-36.5 1 21.5 2 27.8 2.4 36.5 0.1 2.7 0.2 5.1 0.2 7.2 0 4-1.2 5.8-2.6 5.8C316.4 739 315.2 737.2 315.2 733.2z"/>
    <path class="st2" d="M266.2 690.9c0-2 0.1-4.5 0.2-7.2 0.4-8.7 1.5-15 2.4-36.5 1 21.5 2 27.8 2.4 36.5 0.1 2.7 0.2 5.1 0.2 7.2 0 4-1.2 5.8-2.6 5.8C267.3 696.8 266.2 695 266.2 690.9z"/>
    <path class="st2" d="M201.3 769c0-2 0.1-4.5 0.2-7.2 0.4-8.7 1.5-15 2.4-36.5 1 21.5 2 27.8 2.4 36.5 0.1 2.7 0.2 5.1 0.2 7.2 0 4-1.2 5.8-2.6 5.8C202.4 774.8 201.3 773 201.3 769z"/>
    <path class="st2" d="M136.3 718.9c0-2.1 0.1-4.5 0.2-7.2 0.4-8.7 1.5-15 2.4-36.5 1 21.5 2 27.8 2.4 36.5 0.1 2.7 0.2 5.1 0.2 7.2 0 4-1.2 5.8-2.6 5.8S136.3 722.9 136.3 718.9z"/>
    <path class="st2" d="M71.4 756.2c0-2 0.1-4.5 0.2-7.2 0.4-8.7 1.5-15 2.4-36.5 1 21.5 2 27.8 2.4 36.5 0.1 2.7 0.2 5.1 0.2 7.2 0 4-1.2 5.8-2.6 5.8C72.6 762 71.4 760.2 71.4 756.2z"/>
    <path class="st2" d="M6.5 715.2c0-2.1 0.1-4.5 0.2-7.2 0.4-8.7 1.5-15 2.4-36.5 1 21.5 2 27.8 2.4 36.5 0.1 2.7 0.2 5.1 0.2 7.2 0 4-1.2 5.8-2.6 5.8C7.7 721 6.5 719.2 6.5 715.2z"/>
    <path class="st2" d="M678.1 487.5c0-2-0.1-4.4-0.2-7.1 -0.4-8.6-1.4-14.8-2.4-36 -0.9 21.2-2 27.4-2.4 36 -0.1 2.7-0.2 5.1-0.2 7.1 0 4 1.1 5.7 2.5 5.7C677 493.2 678.1 491.4 678.1 487.5z"/>
    <path class="st2" d="M735.5 497c0-2-0.1-4.4-0.2-7.1 -0.4-8.6-1.4-14.8-2.4-36 -0.9 21.2-2 27.4-2.4 36 -0.1 2.7-0.2 5.1-0.2 7.1 0 4 1.1 5.7 2.5 5.7C734.4 502.7 735.5 501 735.5 497z"/>
    <path class="st2" d="M771.2 529.8c0-2.1 0.1-4.5 0.2-7.2 0.4-8.7 1.5-15 2.4-36.5 1 21.5 2 27.8 2.4 36.5 0.1 2.7 0.2 5.1 0.2 7.2 0 4-1.2 5.8-2.6 5.8C772.4 535.6 771.2 533.9 771.2 529.8z"/>
    <path class="st2" d="M705.5 566c0-2 0.1-4.4 0.2-7.1 0.4-8.6 1.4-14.8 2.4-36 0.9 21.2 2 27.4 2.4 36 0.1 2.7 0.2 5.1 0.2 7.1 0 4-1.1 5.7-2.5 5.7C706.7 571.7 705.5 570 705.5 566z"/>
    <path class="st2" d="M637.1 507c0-2 0.1-4.4 0.2-7.1 0.4-8.6 1.4-14.8 2.4-36 0.9 21.2 2 27.4 2.4 36 0.1 2.7 0.2 5.1 0.2 7.1 0 4-1.1 5.7-2.5 5.7C638.2 512.7 637.1 510.9 637.1 507z"/>
    <path class="st2" d="M290.2 773.9c0-2-0.1-4.5-0.2-7.2 -0.4-8.7-1.5-15-2.4-36.5 -1 21.5-2 27.8-2.4 36.5 -0.1 2.7-0.2 5.1-0.2 7.2 0 4 1.2 5.8 2.6 5.8C289 779.7 290.2 777.9 290.2 773.9z"/>
    <path class="st2" d="M383 781.9c0-2.1-0.1-4.5-0.2-7.2 -0.4-8.7-1.5-15-2.4-36.5 -1 21.5-2 27.8-2.4 36.5 -0.1 2.7-0.2 5.1-0.2 7.2 0 4 1.2 5.8 2.6 5.8C381.8 787.7 383 785.9 383 781.9z"/>
    <path class="st2" d="M499 773.9c0-2.1-0.1-4.5-0.2-7.2 -0.4-8.7-1.5-15-2.4-36.5 -1 21.5-2 27.8-2.4 36.5 -0.1 2.7-0.2 5.1-0.2 7.2 0 4 1.2 5.8 2.6 5.8C497.8 779.7 499 777.9 499 773.9z"/>
    <path class="st2" d="M631 778.9c0-2.1-0.1-4.5-0.2-7.2 -0.4-8.7-1.5-15-2.4-36.5 -1 21.5-2 27.8-2.4 36.5 -0.1 2.7-0.2 5.1-0.2 7.2 0 4 1.2 5.8 2.6 5.8C629.8 784.7 631 782.9 631 778.9z"/>
  </g>
  <g id="rain2" class="rain2">
    <path class="st2" d="M14.5 38.7c0-2-0.1-4.5-0.2-7.2 -0.4-8.7-1.5-15-2.4-36.5 -1 21.5-2 27.8-2.4 36.5 -0.1 2.7-0.2 5.1-0.2 7.2 0 4 1.2 5.8 2.6 5.8S14.5 42.7 14.5 38.7z"/>
    <path class="st2" d="M79.4 66.3c0-2-0.1-4.5-0.2-7.2 -0.4-8.7-1.5-15-2.4-36.5 -1 21.5-2 27.8-2.4 36.5 -0.1 2.7-0.2 5.1-0.2 7.2 0 4 1.2 5.8 2.6 5.8C78.3 72.1 79.4 70.3 79.4 66.3z"/>
    <path class="st2" d="M144.3 39.5c0-2-0.1-4.5-0.2-7.2 -0.4-8.7-1.5-15-2.4-36.5 -1 21.5-2 27.8-2.4 36.5 -0.1 2.7-0.2 5.1-0.2 7.2 0 4 1.2 5.8 2.6 5.8S144.3 43.5 144.3 39.5z"/>
    <path class="st2" d="M274.2 52.9c0-2.1-0.1-4.5-0.2-7.2 -0.4-8.7-1.5-15-2.4-36.5 -1 21.5-2 27.8-2.4 36.5 -0.1 2.7-0.2 5.1-0.2 7.2 0 4 1.2 5.8 2.6 5.8C273 58.7 274.2 56.9 274.2 52.9z"/>
    <path class="st2" d="M209.2 80.1c0-2-0.1-4.5-0.2-7.2 -0.4-8.7-1.5-15-2.4-36.5 -1 21.5-2 27.8-2.4 36.5 -0.1 2.7-0.2 5.1-0.2 7.2 0 4 1.2 5.8 2.6 5.8C208.1 85.9 209.2 84.1 209.2 80.1z"/>
    <path class="st2" d="M339.1 83.8c0-2-0.1-4.5-0.2-7.2 -0.4-8.7-1.5-15-2.4-36.5 -1 21.5-2 27.8-2.4 36.5 -0.1 2.7-0.2 5.1-0.2 7.2 0 4 1.2 5.8 2.6 5.8C337.9 89.6 339.1 87.8 339.1 83.8z"/>
    <path class="st2" d="M404 46.9c0-2-0.1-4.5-0.2-7.2 -0.4-8.7-1.5-15-2.4-36.5 -1 21.5-2 27.8-2.4 36.5 -0.1 2.7-0.2 5.1-0.2 7.2 0 4 1.2 5.8 2.6 5.8C402.8 52.7 404 50.9 404 46.9z"/>
    <path class="st2" d="M468.9 93.2c0-2-0.1-4.5-0.2-7.2 -0.4-8.7-1.5-15-2.4-36.5 -1 21.5-2 27.8-2.4 36.5 -0.1 2.7-0.2 5.1-0.2 7.2 0 4 1.2 5.8 2.6 5.8C467.8 99.1 468.9 97.3 468.9 93.2z"/>
    <path class="st2" d="M533.8 55.2c0-2-0.1-4.5-0.2-7.2 -0.4-8.7-1.5-15-2.4-36.5 -1 21.5-2 27.8-2.4 36.5 -0.1 2.7-0.2 5.1-0.2 7.2 0 4 1.2 5.8 2.6 5.8C532.7 61 533.8 59.2 533.8 55.2z"/>
    <path class="st2" d="M598.7 93.3c0-2-0.1-4.5-0.2-7.2 -0.4-8.7-1.5-15-2.4-36.5 -1 21.5-2 27.8-2.4 36.5 -0.1 2.7-0.2 5.1-0.2 7.2 0 4 1.2 5.8 2.6 5.8C597.6 99.1 598.7 97.3 598.7 93.3z"/>
    <path class="st2" d="M663.7 52.2c0-2-0.1-4.5-0.2-7.2 -0.4-8.7-1.5-15-2.4-36.5 -1 21.5-2 27.8-2.4 36.5 -0.1 2.7-0.2 5.1-0.2 7.2 0 4 1.2 5.8 2.6 5.8C662.5 58 663.7 56.2 663.7 52.2z"/>
    <path class="st2" d="M728.6 104.4c0-2-0.1-4.5-0.2-7.2 -0.4-8.7-1.5-15-2.4-36.5 -1 21.5-2 27.8-2.4 36.5 -0.1 2.7-0.2 5.1-0.2 7.2 0 4 1.2 5.8 2.6 5.8C727.4 110.2 728.6 108.5 728.6 104.4z"/>
    <path class="st2" d="M793.5 63.4c0-2.1-0.1-4.5-0.2-7.2 -0.4-8.7-1.5-15-2.4-36.5 -1 21.5-2 27.8-2.4 36.5 -0.1 2.7-0.2 5.1-0.2 7.2 0 4 1.2 5.8 2.6 5.8C792.3 69.2 793.5 67.4 793.5 63.4z"/>
    <path class="st2" d="M765.5 126.9c0-2 0.1-4.5 0.2-7.2 0.4-8.7 1.5-15 2.4-36.5 1 21.5 2 27.8 2.4 36.5 0.1 2.7 0.2 5.1 0.2 7.2 0 4-1.2 5.8-2.6 5.8C766.6 132.7 765.5 130.9 765.5 126.9z"/>
    <path class="st2" d="M700.6 154.5c0-2.1 0.1-4.5 0.2-7.2 0.4-8.7 1.5-15 2.4-36.5 1 21.5 2 27.8 2.4 36.5 0.1 2.7 0.2 5.1 0.2 7.2 0 4-1.2 5.8-2.6 5.8C701.7 160.3 700.6 158.5 700.6 154.5z"/>
    <path class="st2" d="M637 124c0-2 0.1-4.5 0.2-7.2 0.4-8.7 1.5-15 2.4-36.5 1 21.5 2 27.8 2.4 36.5 0.1 2.7 0.2 5.1 0.2 7.2 0 4-1.2 5.8-2.6 5.8C638.1 129.8 637 128 637 124z"/>
    <path class="st2" d="M519.3 125.1c0-2.1 0.1-4.5 0.2-7.2 0.4-8.7 1.5-15 2.4-36.5 1 21.5 2 27.8 2.4 36.5 0.1 2.7 0.2 5.1 0.2 7.2 0 4-1.2 5.8-2.6 5.8C520.5 130.9 519.3 129.2 519.3 125.1z"/>
    <path class="st2" d="M572.1 164.6c0-2 0.1-4.5 0.2-7.2 0.4-8.7 1.5-15 2.4-36.5 1 21.5 2 27.8 2.4 36.5 0.1 2.7 0.2 5.1 0.2 7.2 0 4-1.2 5.8-2.6 5.8S572.1 168.6 572.1 164.6z"/>
    <path class="st2" d="M456.7 175.2c0-2 0.1-4.5 0.2-7.2 0.4-8.7 1.5-15 2.4-36.5 1 21.5 2 27.8 2.4 36.5 0.1 2.7 0.2 5.1 0.2 7.2 0 4-1.2 5.8-2.6 5.8C457.9 181 456.7 179.2 456.7 175.2z"/>
    <path class="st2" d="M374.8 115.6c0-2 0.1-4.5 0.2-7.2 0.4-8.7 1.5-15 2.4-36.5 1 21.5 2 27.8 2.4 36.5 0.1 2.7 0.2 5.1 0.2 7.2 0 4-1.2 5.8-2.6 5.8C376 121.4 374.8 119.6 374.8 115.6z"/>
    <path class="st2" d="M308.7 153.7c0-2.1 0.1-4.5 0.2-7.2 0.4-8.7 1.5-15 2.4-36.5 1 21.5 2 27.8 2.4 36.5 0.1 2.7 0.2 5.1 0.2 7.2 0 4-1.2 5.8-2.6 5.8C309.9 159.5 308.7 157.7 308.7 153.7z"/>
    <path class="st2" d="M347.7 186.7c0-2.1 0.1-4.5 0.2-7.2 0.4-8.7 1.5-15 2.4-36.5 1 21.5 2 27.8 2.4 36.5 0.1 2.7 0.2 5.1 0.2 7.2 0 4-1.2 5.8-2.6 5.8C348.9 192.5 347.7 190.7 347.7 186.7z"/>
    <path class="st2" d="M259.7 127.5c0-2 0.1-4.5 0.2-7.2 0.4-8.7 1.5-15 2.4-36.5 1 21.5 2 27.8 2.4 36.5 0.1 2.7 0.2 5.1 0.2 7.2 0 4-1.2 5.8-2.6 5.8C260.8 133.3 259.7 131.5 259.7 127.5z"/>
    <path class="st2" d="M194.7 165.5c0-2 0.1-4.5 0.2-7.2 0.4-8.7 1.5-15 2.4-36.5 1 21.5 2 27.8 2.4 36.5 0.1 2.7 0.2 5.1 0.2 7.2 0 4-1.2 5.8-2.6 5.8C195.9 171.3 194.7 169.5 194.7 165.5z"/>
    <path class="st2" d="M129.8 139.4c0-2 0.1-4.5 0.2-7.2 0.4-8.7 1.5-15 2.4-36.5 1 21.5 2 27.8 2.4 36.5 0.1 2.7 0.2 5.1 0.2 7.2 0 4-1.2 5.8-2.6 5.8C131 145.2 129.8 143.5 129.8 139.4z"/>
    <path class="st2" d="M64.9 176.7c0-2.1 0.1-4.5 0.2-7.2 0.4-8.7 1.5-15 2.4-36.5 1 21.5 2 27.8 2.4 36.5 0.1 2.7 0.2 5.1 0.2 7.2 0 4-1.2 5.8-2.6 5.8C66.1 182.5 64.9 180.7 64.9 176.7z"/>
    <path class="st2" d="M6 135.7c0-2.1 0.1-4.5 0.2-7.2 0.4-8.7 1.5-15 2.4-36.5 1 21.5 2 27.8 2.4 36.5 0.1 2.7 0.2 5.1 0.2 7.2 0 4-1.2 5.8-2.6 5.8C7.2 141.5 6 139.7 6 135.7z"/>
    <path class="st2" d="M28.5 219.9c0-2.1-0.1-4.5-0.2-7.2 -0.4-8.7-1.5-15-2.4-36.5 -1 21.5-2 27.8-2.4 36.5 -0.1 2.7-0.2 5.1-0.2 7.2 0 4 1.2 5.8 2.6 5.8C27.4 225.7 28.5 223.9 28.5 219.9z"/>
    <path class="st2" d="M93.4 247.5c0-2-0.1-4.5-0.2-7.2 -0.4-8.7-1.5-15-2.4-36.5 -1 21.5-2 27.8-2.4 36.5 -0.1 2.7-0.2 5.1-0.2 7.2 0 4 1.2 5.8 2.6 5.8C92.3 253.3 93.4 251.5 93.4 247.5z"/>
    <path class="st2" d="M158.3 220.7c0-2.1-0.1-4.5-0.2-7.2 -0.4-8.7-1.5-15-2.4-36.5 -1 21.5-2 27.8-2.4 36.5 -0.1 2.7-0.2 5.1-0.2 7.2 0 4 1.2 5.8 2.6 5.8C157.2 226.5 158.3 224.7 158.3 220.7z"/>
    <path class="st2" d="M288.2 234.1c0-2.1-0.1-4.5-0.2-7.2 -0.4-8.7-1.5-15-2.4-36.5 -1 21.5-2 27.8-2.4 36.5 -0.1 2.7-0.2 5.1-0.2 7.2 0 4 1.2 5.8 2.6 5.8C287 239.9 288.2 238.1 288.2 234.1z"/>
    <path class="st2" d="M223.3 261.3c0-2-0.1-4.5-0.2-7.2 -0.4-8.7-1.5-15-2.4-36.5 -1 21.5-2 27.8-2.4 36.5 -0.1 2.7-0.2 5.1-0.2 7.2 0 4 1.2 5.8 2.6 5.8C222.1 267.1 223.3 265.4 223.3 261.3z"/>
    <path class="st2" d="M353.1 265c0-2-0.1-4.5-0.2-7.2 -0.4-8.7-1.5-15-2.4-36.5 -1 21.5-2 27.8-2.4 36.5 -0.1 2.7-0.2 5.1-0.2 7.2 0 4 1.2 5.8 2.6 5.8C351.9 270.8 353.1 269 353.1 265z"/>
    <path class="st2" d="M418 228.1c0-2.1-0.1-4.5-0.2-7.2 -0.4-8.7-1.5-15-2.4-36.5 -1 21.5-2 27.8-2.4 36.5 -0.1 2.7-0.2 5.1-0.2 7.2 0 4 1.2 5.8 2.6 5.8C416.9 233.9 418 232.2 418 228.1z"/>
    <path class="st2" d="M495.9 240.5c0-2.1-0.1-4.5-0.2-7.2 -0.4-8.7-1.5-15-2.4-36.5 -1 21.5-2 27.8-2.4 36.5 -0.1 2.7-0.2 5.1-0.2 7.2 0 4 1.2 5.8 2.6 5.8C494.8 246.3 495.9 244.5 495.9 240.5z"/>
    <path class="st2" d="M547.8 236.4c0-2.1-0.1-4.5-0.2-7.2 -0.4-8.7-1.5-15-2.4-36.5 -1 21.5-2 27.8-2.4 36.5 -0.1 2.7-0.2 5.1-0.2 7.2 0 4 1.2 5.8 2.6 5.8C546.7 242.2 547.8 240.5 547.8 236.4z"/>
    <path class="st2" d="M612.8 225.9c0-2.1-0.1-4.5-0.2-7.2 -0.4-8.7-1.5-15-2.4-36.5 -1 21.5-2 27.8-2.4 36.5 -0.1 2.7-0.2 5.1-0.2 7.2 0 4 1.2 5.8 2.6 5.8C611.6 231.7 612.8 229.9 612.8 225.9z"/>
    <path class="st2" d="M677.7 199.9c0-2-0.1-4.5-0.2-7.2 -0.4-8.7-1.5-15-2.4-36.5 -1 21.5-2 27.8-2.4 36.5 -0.1 2.7-0.2 5.1-0.2 7.2 0 4 1.2 5.8 2.6 5.8C676.5 205.7 677.7 203.9 677.7 199.9z"/>
    <path class="st2" d="M743.3 242.5c0-2.1-0.1-4.5-0.2-7.2 -0.4-8.7-1.5-15-2.4-36.5 -1 21.5-2 27.8-2.4 36.5 -0.1 2.7-0.2 5.1-0.2 7.2 0 4 1.2 5.8 2.6 5.8C742.1 248.3 743.3 246.5 743.3 242.5z"/>
    <path class="st2" d="M788.8 186.8c0-2.1-0.1-4.5-0.2-7.2 -0.4-8.7-1.5-15-2.4-36.5 -1 21.5-2 27.8-2.4 36.5 -0.1 2.7-0.2 5.1-0.2 7.2 0 4 1.2 5.8 2.6 5.8C787.7 192.6 788.8 190.8 788.8 186.8z"/>
    <path class="st2" d="M749.1 305.2c0-2.1 0.1-4.5 0.2-7.2 0.4-8.7 1.5-15 2.4-36.5 1 21.5 2 27.8 2.4 36.5 0.1 2.7 0.2 5.1 0.2 7.2 0 4-1.2 5.8-2.6 5.8C750.3 311 749.1 309.2 749.1 305.2z"/>
    <path class="st2" d="M695.9 277.9c0-2 0.1-4.5 0.2-7.2 0.4-8.7 1.5-15 2.4-36.5 1 21.5 2 27.8 2.4 36.5 0.1 2.7 0.2 5.1 0.2 7.2 0 4-1.2 5.8-2.6 5.8C697 283.7 695.9 281.9 695.9 277.9z"/>
    <path class="st2" d="M651 256.6c0-2 0.1-4.5 0.2-7.2 0.4-8.7 1.5-15 2.4-36.5 1 21.5 2 27.8 2.4 36.5 0.1 2.7 0.2 5.1 0.2 7.2 0 4-1.2 5.8-2.6 5.8C652.2 262.4 651 260.7 651 256.6z"/>
    <path class="st2" d="M533.4 306.4c0-2.1 0.1-4.5 0.2-7.2 0.4-8.7 1.5-15 2.4-36.5 1 21.5 2 27.8 2.4 36.5 0.1 2.7 0.2 5.1 0.2 7.2 0 4-1.2 5.8-2.6 5.8C534.5 312.2 533.4 310.4 533.4 306.4z"/>
    <path class="st2" d="M586.1 345.8c0-2 0.1-4.5 0.2-7.2 0.4-8.7 1.5-15 2.4-36.5 1 21.5 2 27.8 2.4 36.5 0.1 2.7 0.2 5.1 0.2 7.2 0 4-1.2 5.8-2.6 5.8S586.1 349.9 586.1 345.8z"/>
    <path class="st2" d="M449.7 326.4c0-2 0.1-4.5 0.2-7.2 0.4-8.7 1.5-15 2.4-36.5 1 21.5 2 27.8 2.4 36.5 0.1 2.7 0.2 5.1 0.2 7.2 0 4-1.2 5.8-2.6 5.8C450.9 332.2 449.7 330.4 449.7 326.4z"/>
    <path class="st2" d="M388.8 296.9c0-2.1 0.1-4.5 0.2-7.2 0.4-8.7 1.5-15 2.4-36.5 1 21.5 2 27.8 2.4 36.5 0.1 2.7 0.2 5.1 0.2 7.2 0 4-1.2 5.8-2.6 5.8C390 302.7 388.8 300.9 388.8 296.9z"/>
    <path class="st2" d="M322.7 334.9c0-2 0.1-4.5 0.2-7.2 0.4-8.7 1.5-15 2.4-36.5 1 21.5 2 27.8 2.4 36.5 0.1 2.7 0.2 5.1 0.2 7.2 0 4-1.2 5.8-2.6 5.8C323.9 340.7 322.7 338.9 322.7 334.9z"/>
    <path class="st2" d="M369.7 390.9c0-2 0.1-4.5 0.2-7.2 0.4-8.7 1.5-15 2.4-36.5 1 21.5 2 27.8 2.4 36.5 0.1 2.7 0.2 5.1 0.2 7.2 0 4-1.2 5.8-2.6 5.8C370.9 396.7 369.7 394.9 369.7 390.9z"/>
    <path class="st2" d="M493.7 382.9c0-2 0.1-4.5 0.2-7.2 0.4-8.7 1.5-15 2.4-36.5 1 21.5 2 27.8 2.4 36.5 0.1 2.7 0.2 5.1 0.2 7.2 0 4-1.2 5.8-2.6 5.8C494.9 388.7 493.7 386.9 493.7 382.9z"/>
    <path class="st2" d="M273.7 308.7c0-2 0.1-4.5 0.2-7.2 0.4-8.7 1.5-15 2.4-36.5 1 21.5 2 27.8 2.4 36.5 0.1 2.7 0.2 5.1 0.2 7.2 0 4-1.2 5.8-2.6 5.8C274.8 314.5 273.7 312.7 273.7 308.7z"/>
    <path class="st2" d="M208.8 346.8c0-2.1 0.1-4.5 0.2-7.2 0.4-8.7 1.5-15 2.4-36.5 1 21.5 2 27.8 2.4 36.5 0.1 2.7 0.2 5.1 0.2 7.2 0 4-1.2 5.8-2.6 5.8C209.9 352.6 208.8 350.8 208.8 346.8z"/>
    <path class="st2" d="M143.9 320.7c0-2 0.1-4.5 0.2-7.2 0.4-8.7 1.5-15 2.4-36.5 1 21.5 2 27.8 2.4 36.5 0.1 2.7 0.2 5.1 0.2 7.2 0 4-1.2 5.8-2.6 5.8C145 326.5 143.9 324.7 143.9 320.7z"/>
    <path class="st2" d="M78.9 358c0-2 0.1-4.5 0.2-7.2 0.4-8.7 1.5-15 2.4-36.5 1 21.5 2 27.8 2.4 36.5 0.1 2.7 0.2 5.1 0.2 7.2 0 4-1.2 5.8-2.6 5.8C80.1 363.8 78.9 362 78.9 358z"/>
    <path class="st2" d="M14 316.9c0-2.1 0.1-4.5 0.2-7.2 0.4-8.7 1.5-15 2.4-36.5 1 21.5 2 27.8 2.4 36.5 0.1 2.7 0.2 5.1 0.2 7.2 0 4-1.2 5.8-2.6 5.8C15.2 322.7 14 321 14 316.9z"/>
    <path class="st2" d="M17.5 421.3c0-2-0.1-4.5-0.2-7.2 -0.4-8.7-1.5-15-2.4-36.5 -1 21.5-2 27.8-2.4 36.5 -0.1 2.7-0.2 5.1-0.2 7.2 0 4 1.2 5.8 2.6 5.8S17.5 425.3 17.5 421.3z"/>
    <path class="st2" d="M82.4 448.9c0-2-0.1-4.5-0.2-7.2 -0.4-8.7-1.5-15-2.4-36.5 -1 21.5-2 27.8-2.4 36.5 -0.1 2.7-0.2 5.1-0.2 7.2 0 4 1.2 5.8 2.6 5.8C81.3 454.7 82.4 452.9 82.4 448.9z"/>
    <path class="st2" d="M147.3 422.1c0-2-0.1-4.5-0.2-7.2 -0.4-8.7-1.5-15-2.4-36.5 -1 21.5-2 27.8-2.4 36.5 -0.1 2.7-0.2 5.1-0.2 7.2 0 4 1.2 5.8 2.6 5.8S147.3 426.1 147.3 422.1z"/>
    <path class="st2" d="M278 406.9c0-2-0.1-4.4-0.2-7.1 -0.4-8.6-1.4-14.8-2.4-36 -0.9 21.2-2 27.4-2.4 36 -0.1 2.7-0.2 5.1-0.2 7.1 0 4 1.1 5.7 2.5 5.7C276.9 412.7 278 410.9 278 406.9z"/>
    <path class="st2" d="M214 461.8c0-2-0.1-4.4-0.2-7.1 -0.4-8.6-1.4-14.8-2.4-36 -0.9 21.2-2 27.4-2.4 36 -0.1 2.7-0.2 5.1-0.2 7.1 0 4 1.1 5.7 2.5 5.7S214 465.8 214 461.8z"/>
    <path class="st2" d="M342.1 465.4c0-2-0.1-4.4-0.2-7.1 -0.4-8.6-1.4-14.8-2.4-36 -0.9 21.2-2 27.4-2.4 36 -0.1 2.7-0.2 5.1-0.2 7.1 0 4 1.1 5.7 2.5 5.7C340.9 471.2 342.1 469.4 342.1 465.4z"/>
    <path class="st2" d="M425 410.5c0-2.1-0.1-4.5-0.2-7.2 -0.4-8.7-1.5-15-2.4-36.5 -1 21.5-2 27.8-2.4 36.5 -0.1 2.7-0.2 5.1-0.2 7.2 0 4 1.2 5.8 2.6 5.8C423.8 416.3 425 414.6 425 410.5z"/>
    <path class="st2" d="M471.9 475.9c0-2-0.1-4.5-0.2-7.2 -0.4-8.7-1.5-15-2.4-36.5 -1 21.5-2 27.8-2.4 36.5 -0.1 2.7-0.2 5.1-0.2 7.2 0 4 1.2 5.8 2.6 5.8C470.8 481.7 471.9 479.9 471.9 475.9z"/>
    <path class="st2" d="M560.8 437.8c0-2-0.1-4.5-0.2-7.2 -0.4-8.7-1.5-15-2.4-36.5 -1 21.5-2 27.8-2.4 36.5 -0.1 2.7-0.2 5.1-0.2 7.2 0 4 1.2 5.8 2.6 5.8C559.7 443.6 560.8 441.8 560.8 437.8z"/>
    <path class="st2" d="M660.7 333.9c0-2-0.1-4.5-0.2-7.2 -0.4-8.7-1.5-15-2.4-36.5 -1 21.5-2 27.8-2.4 36.5 -0.1 2.7-0.2 5.1-0.2 7.2 0 4 1.2 5.8 2.6 5.8C659.5 339.7 660.7 337.9 660.7 333.9z"/>
    <path class="st2" d="M725.6 371.2c0-2-0.1-4.5-0.2-7.2 -0.4-8.7-1.5-15-2.4-36.5 -1 21.5-2 27.8-2.4 36.5 -0.1 2.7-0.2 5.1-0.2 7.2 0 4 1.2 5.8 2.6 5.8C724.4 377 725.6 375.2 725.6 371.2z"/>
    <path class="st2" d="M790.5 330.2c0-2.1-0.1-4.5-0.2-7.2 -0.4-8.7-1.5-15-2.4-36.5 -1 21.5-2 27.8-2.4 36.5 -0.1 2.7-0.2 5.1-0.2 7.2 0 4 1.2 5.8 2.6 5.8C789.3 336 790.5 334.2 790.5 330.2z"/>
    <path class="st2" d="M762.5 393.7c0-2 0.1-4.5 0.2-7.2 0.4-8.7 1.5-15 2.4-36.5 1 21.5 2 27.8 2.4 36.5 0.1 2.7 0.2 5.1 0.2 7.2 0 4-1.2 5.8-2.6 5.8C763.6 399.5 762.5 397.7 762.5 393.7z"/>
    <path class="st2" d="M697.6 421.3c0-2 0.1-4.5 0.2-7.2 0.4-8.7 1.5-15 2.4-36.5 1 21.5 2 27.8 2.4 36.5 0.1 2.7 0.2 5.1 0.2 7.2 0 4-1.2 5.8-2.6 5.8C698.7 427.1 697.6 425.3 697.6 421.3z"/>
    <path class="st2" d="M634 390.7c0-2 0.1-4.5 0.2-7.2 0.4-8.7 1.5-15 2.4-36.5 1 21.5 2 27.8 2.4 36.5 0.1 2.7 0.2 5.1 0.2 7.2 0 4-1.2 5.8-2.6 5.8C635.1 396.5 634 394.7 634 390.7z"/>
    <path class="st2" d="M522.3 507.8c0-2.1 0.1-4.5 0.2-7.2 0.4-8.7 1.5-15 2.4-36.5 1 21.5 2 27.8 2.4 36.5 0.1 2.7 0.2 5.1 0.2 7.2 0 4-1.2 5.8-2.6 5.8C523.5 513.6 522.3 511.8 522.3 507.8z"/>
    <path class="st2" d="M477.3 590.8c0-2 0.1-4.5 0.2-7.2 0.4-8.7 1.5-15 2.4-36.5 1 21.5 2 27.8 2.4 36.5 0.1 2.7 0.2 5.1 0.2 7.2 0 4-1.2 5.8-2.6 5.8C478.5 596.6 477.3 594.8 477.3 590.8z"/>
    <path class="st2" d="M575.1 547.2c0-2 0.1-4.5 0.2-7.2 0.4-8.7 1.5-15 2.4-36.5 1 21.5 2 27.8 2.4 36.5 0.1 2.7 0.2 5.1 0.2 7.2 0 4-1.2 5.8-2.6 5.8C576.2 553 575.1 551.2 575.1 547.2z"/>
    <path class="st2" d="M438.7 527.8c0-2 0.1-4.5 0.2-7.2 0.4-8.7 1.5-15 2.4-36.5 1 21.5 2 27.8 2.4 36.5 0.1 2.7 0.2 5.1 0.2 7.2 0 4-1.2 5.8-2.6 5.8C439.9 533.6 438.7 531.8 438.7 527.8z"/>
    <path class="st2" d="M377.8 498.2c0-2.1 0.1-4.5 0.2-7.2 0.4-8.7 1.5-15 2.4-36.5 1 21.5 2 27.8 2.4 36.5 0.1 2.7 0.2 5.1 0.2 7.2 0 4-1.2 5.8-2.6 5.8C379 504 377.8 502.3 377.8 498.2z"/>
    <path class="st2" d="M312.1 534.4c0-2 0.1-4.4 0.2-7.1 0.4-8.6 1.4-14.8 2.4-36 0.9 21.2 2 27.4 2.4 36 0.1 2.7 0.2 5.1 0.2 7.1 0 4-1.1 5.7-2.5 5.7C313.3 540.1 312.1 538.4 312.1 534.4z"/>
    <path class="st2" d="M263.7 508.5c0-2 0.1-4.4 0.2-7.1 0.4-8.6 1.4-14.8 2.4-36 0.9 21.2 2 27.4 2.4 36 0.1 2.7 0.2 5.1 0.2 7.1 0 4-1.1 5.7-2.5 5.7C264.9 514.3 263.7 512.5 263.7 508.5z"/>
    <path class="st2" d="M197.8 548.2c0-2 0.1-4.5 0.2-7.2 0.4-8.7 1.5-15 2.4-36.5 1 21.5 2 27.8 2.4 36.5 0.1 2.7 0.2 5.1 0.2 7.2 0 4-1.2 5.8-2.6 5.8C198.9 554 197.8 552.2 197.8 548.2z"/>
    <path class="st2" d="M132.8 522.1c0-2 0.1-4.5 0.2-7.2 0.4-8.7 1.5-15 2.4-36.5 1 21.5 2 27.8 2.4 36.5 0.1 2.7 0.2 5.1 0.2 7.2 0 4-1.2 5.8-2.6 5.8C134 527.9 132.8 526.1 132.8 522.1z"/>
    <path class="st2" d="M67.9 559.3c0-2 0.1-4.5 0.2-7.2 0.4-8.7 1.5-15 2.4-36.5 1 21.5 2 27.8 2.4 36.5 0.1 2.7 0.2 5.1 0.2 7.2 0 4-1.2 5.8-2.6 5.8C69.1 565.2 67.9 563.4 67.9 559.3z"/>
    <path class="st2" d="M7 518.3c0-2 0.1-4.5 0.2-7.2 0.4-8.7 1.5-15 2.4-36.5 1 21.5 2 27.8 2.4 36.5 0.1 2.7 0.2 5.1 0.2 7.2 0 4-1.2 5.8-2.6 5.8C8.2 524.1 7 522.3 7 518.3z"/>
    <path class="st2" d="M21 618.2c0-2-0.1-4.5-0.2-7.2 -0.4-8.7-1.5-15-2.4-36.5 -1 21.5-2 27.8-2.4 36.5 -0.1 2.7-0.2 5.1-0.2 7.2 0 4 1.2 5.8 2.6 5.8C19.9 624 21 622.2 21 618.2z"/>
    <path class="st2" d="M85.9 645.8c0-2-0.1-4.5-0.2-7.2 -0.4-8.7-1.5-15-2.4-36.5 -1 21.5-2 27.8-2.4 36.5 -0.1 2.7-0.2 5.1-0.2 7.2 0 4 1.2 5.8 2.6 5.8C84.8 651.6 85.9 649.8 85.9 645.8z"/>
    <path class="st2" d="M150.8 619c0-2-0.1-4.5-0.2-7.2 -0.4-8.7-1.5-15-2.4-36.5 -1 21.5-2 27.8-2.4 36.5 -0.1 2.7-0.2 5.1-0.2 7.2 0 4 1.2 5.8 2.6 5.8C149.7 624.8 150.8 623 150.8 619z"/>
    <path class="st2" d="M278.7 603.4c0-2-0.1-4.5-0.2-7.2 -0.4-8.7-1.5-15-2.4-36.5 -1 21.5-2 27.8-2.4 36.5 -0.1 2.7-0.2 5.1-0.2 7.2 0 4 1.2 5.8 2.6 5.8S278.7 607.4 278.7 603.4z"/>
    <path class="st2" d="M215.8 659.6c0-2-0.1-4.5-0.2-7.2 -0.4-8.7-1.5-15-2.4-36.5 -1 21.5-2 27.8-2.4 36.5 -0.1 2.7-0.2 5.1-0.2 7.2 0 4 1.2 5.8 2.6 5.8C214.6 665.4 215.8 663.6 215.8 659.6z"/>
    <path class="st2" d="M345.6 663.3c0-2-0.1-4.5-0.2-7.2 -0.4-8.7-1.5-15-2.4-36.5 -1 21.5-2 27.8-2.4 36.5 -0.1 2.7-0.2 5.1-0.2 7.2 0 4 1.2 5.8 2.6 5.8C344.4 669.1 345.6 667.3 345.6 663.3z"/>
    <path class="st2" d="M410.5 626.4c0-2.1-0.1-4.5-0.2-7.2 -0.4-8.7-1.5-15-2.4-36.5 -1 21.5-2 27.8-2.4 36.5 -0.1 2.7-0.2 5.1-0.2 7.2 0 4 1.2 5.8 2.6 5.8C409.3 632.2 410.5 630.4 410.5 626.4z"/>
    <path class="st2" d="M355.5 590.4c0-2.1-0.1-4.5-0.2-7.2 -0.4-8.7-1.5-15-2.4-36.5 -1 21.5-2 27.8-2.4 36.5 -0.1 2.7-0.2 5.1-0.2 7.2 0 4 1.2 5.8 2.6 5.8C354.3 596.2 355.5 594.4 355.5 590.4z"/>
    <path class="st2" d="M475.4 672.7c0-2-0.1-4.5-0.2-7.2 -0.4-8.7-1.5-15-2.4-36.5 -1 21.5-2 27.8-2.4 36.5 -0.1 2.7-0.2 5.1-0.2 7.2 0 4 1.2 5.8 2.6 5.8C474.3 678.5 475.4 676.8 475.4 672.7z"/>
    <path class="st2" d="M540.3 634.7c0-2-0.1-4.5-0.2-7.2 -0.4-8.7-1.5-15-2.4-36.5 -1 21.5-2 27.8-2.4 36.5 -0.1 2.7-0.2 5.1-0.2 7.2 0 4 1.2 5.8 2.6 5.8C539.2 640.5 540.3 638.7 540.3 634.7z"/>
    <path class="st2" d="M605.3 672.7c0-2-0.1-4.5-0.2-7.2 -0.4-8.7-1.5-15-2.4-36.5 -1 21.5-2 27.8-2.4 36.5 -0.1 2.7-0.2 5.1-0.2 7.2 0 4 1.2 5.8 2.6 5.8C604.1 678.5 605.3 676.8 605.3 672.7z"/>
    <path class="st2" d="M670.2 646.7c0-2-0.1-4.5-0.2-7.2 -0.4-8.7-1.5-15-2.4-36.5 -1 21.5-2 27.8-2.4 36.5 -0.1 2.7-0.2 5.1-0.2 7.2 0 4 1.2 5.8 2.6 5.8S670.2 650.7 670.2 646.7z"/>
    <path class="st2" d="M634.2 594.7c0-2-0.1-4.5-0.2-7.2 -0.4-8.7-1.5-15-2.4-36.5 -1 21.5-2 27.8-2.4 36.5 -0.1 2.7-0.2 5.1-0.2 7.2 0 4 1.2 5.8 2.6 5.8S634.2 598.7 634.2 594.7z"/>
    <path class="st2" d="M735.1 683.9c0-2-0.1-4.5-0.2-7.2 -0.4-8.7-1.5-15-2.4-36.5 -1 21.5-2 27.8-2.4 36.5 -0.1 2.7-0.2 5.1-0.2 7.2 0 4 1.2 5.8 2.6 5.8C733.9 689.7 735.1 687.9 735.1 683.9z"/>
    <path class="st2" d="M792 642.9c0-2-0.1-4.5-0.2-7.2 -0.4-8.7-1.5-15-2.4-36.5 -1 21.5-2 27.8-2.4 36.5 -0.1 2.7-0.2 5.1-0.2 7.2 0 4 1.2 5.8 2.6 5.8C790.8 648.7 792 646.9 792 642.9z"/>
    <path class="st2" d="M772 706.4c0-2 0.1-4.5 0.2-7.2 0.4-8.7 1.5-15 2.4-36.5 1 21.5 2 27.8 2.4 36.5 0.1 2.7 0.2 5.1 0.2 7.2 0 4-1.2 5.8-2.6 5.8C773.1 712.2 772 710.4 772 706.4z"/>
    <path class="st2" d="M707.1 734c0-2 0.1-4.5 0.2-7.2 0.4-8.7 1.5-15 2.4-36.5 1 21.5 2 27.8 2.4 36.5 0.1 2.7 0.2 5.1 0.2 7.2 0 4-1.2 5.8-2.6 5.8C708.2 739.8 707.1 738 707.1 734z"/>
    <path class="st2" d="M643.5 703.5c0-2 0.1-4.5 0.2-7.2 0.4-8.7 1.5-15 2.4-36.5 1 21.5 2 27.8 2.4 36.5 0.1 2.7 0.2 5.1 0.2 7.2 0 4-1.2 5.8-2.6 5.8C644.6 709.3 643.5 707.5 643.5 703.5z"/>
    <path class="st2" d="M525.8 704.6c0-2 0.1-4.5 0.2-7.2 0.4-8.7 1.5-15 2.4-36.5 1 21.5 2 27.8 2.4 36.5 0.1 2.7 0.2 5.1 0.2 7.2 0 4-1.2 5.8-2.6 5.8C527 710.4 525.8 708.6 525.8 704.6z"/>
    <path class="st2" d="M578.6 744.1c0-2.1 0.1-4.5 0.2-7.2 0.4-8.7 1.5-15 2.4-36.5 1 21.5 2 27.8 2.4 36.5 0.1 2.7 0.2 5.1 0.2 7.2 0 4-1.2 5.8-2.6 5.8S578.6 748.1 578.6 744.1z"/>
    <path class="st2" d="M442.2 724.7c0-2 0.1-4.5 0.2-7.2 0.4-8.7 1.5-15 2.4-36.5 1 21.5 2 27.8 2.4 36.5 0.1 2.7 0.2 5.1 0.2 7.2 0 4-1.2 5.8-2.6 5.8C443.4 730.5 442.2 728.7 442.2 724.7z"/>
    <path class="st2" d="M381.3 695.1c0-2 0.1-4.5 0.2-7.2 0.4-8.7 1.5-15 2.4-36.5 1 21.5 2 27.8 2.4 36.5 0.1 2.7 0.2 5.1 0.2 7.2 0 4-1.2 5.8-2.6 5.8C382.5 700.9 381.3 699.1 381.3 695.1z"/>
    <path class="st2" d="M315.2 733.2c0-2 0.1-4.5 0.2-7.2 0.4-8.7 1.5-15 2.4-36.5 1 21.5 2 27.8 2.4 36.5 0.1 2.7 0.2 5.1 0.2 7.2 0 4-1.2 5.8-2.6 5.8C316.4 739 315.2 737.2 315.2 733.2z"/>
    <path class="st2" d="M266.2 690.9c0-2 0.1-4.5 0.2-7.2 0.4-8.7 1.5-15 2.4-36.5 1 21.5 2 27.8 2.4 36.5 0.1 2.7 0.2 5.1 0.2 7.2 0 4-1.2 5.8-2.6 5.8C267.3 696.8 266.2 695 266.2 690.9z"/>
    <path class="st2" d="M201.3 769c0-2 0.1-4.5 0.2-7.2 0.4-8.7 1.5-15 2.4-36.5 1 21.5 2 27.8 2.4 36.5 0.1 2.7 0.2 5.1 0.2 7.2 0 4-1.2 5.8-2.6 5.8C202.4 774.8 201.3 773 201.3 769z"/>
    <path class="st2" d="M136.3 718.9c0-2.1 0.1-4.5 0.2-7.2 0.4-8.7 1.5-15 2.4-36.5 1 21.5 2 27.8 2.4 36.5 0.1 2.7 0.2 5.1 0.2 7.2 0 4-1.2 5.8-2.6 5.8S136.3 722.9 136.3 718.9z"/>
    <path class="st2" d="M71.4 756.2c0-2 0.1-4.5 0.2-7.2 0.4-8.7 1.5-15 2.4-36.5 1 21.5 2 27.8 2.4 36.5 0.1 2.7 0.2 5.1 0.2 7.2 0 4-1.2 5.8-2.6 5.8C72.6 762 71.4 760.2 71.4 756.2z"/>
    <path class="st2" d="M6.5 715.2c0-2.1 0.1-4.5 0.2-7.2 0.4-8.7 1.5-15 2.4-36.5 1 21.5 2 27.8 2.4 36.5 0.1 2.7 0.2 5.1 0.2 7.2 0 4-1.2 5.8-2.6 5.8C7.7 721 6.5 719.2 6.5 715.2z"/>
    <path class="st2" d="M678.1 487.5c0-2-0.1-4.4-0.2-7.1 -0.4-8.6-1.4-14.8-2.4-36 -0.9 21.2-2 27.4-2.4 36 -0.1 2.7-0.2 5.1-0.2 7.1 0 4 1.1 5.7 2.5 5.7C677 493.2 678.1 491.4 678.1 487.5z"/>
    <path class="st2" d="M735.5 497c0-2-0.1-4.4-0.2-7.1 -0.4-8.6-1.4-14.8-2.4-36 -0.9 21.2-2 27.4-2.4 36 -0.1 2.7-0.2 5.1-0.2 7.1 0 4 1.1 5.7 2.5 5.7C734.4 502.7 735.5 501 735.5 497z"/>
    <path class="st2" d="M771.2 529.8c0-2.1 0.1-4.5 0.2-7.2 0.4-8.7 1.5-15 2.4-36.5 1 21.5 2 27.8 2.4 36.5 0.1 2.7 0.2 5.1 0.2 7.2 0 4-1.2 5.8-2.6 5.8C772.4 535.6 771.2 533.9 771.2 529.8z"/>
    <path class="st2" d="M705.5 566c0-2 0.1-4.4 0.2-7.1 0.4-8.6 1.4-14.8 2.4-36 0.9 21.2 2 27.4 2.4 36 0.1 2.7 0.2 5.1 0.2 7.1 0 4-1.1 5.7-2.5 5.7C706.7 571.7 705.5 570 705.5 566z"/>
    <path class="st2" d="M637.1 507c0-2 0.1-4.4 0.2-7.1 0.4-8.6 1.4-14.8 2.4-36 0.9 21.2 2 27.4 2.4 36 0.1 2.7 0.2 5.1 0.2 7.1 0 4-1.1 5.7-2.5 5.7C638.2 512.7 637.1 510.9 637.1 507z"/>
    <path class="st2" d="M290.2 773.9c0-2-0.1-4.5-0.2-7.2 -0.4-8.7-1.5-15-2.4-36.5 -1 21.5-2 27.8-2.4 36.5 -0.1 2.7-0.2 5.1-0.2 7.2 0 4 1.2 5.8 2.6 5.8C289 779.7 290.2 777.9 290.2 773.9z"/>
    <path class="st2" d="M383 781.9c0-2.1-0.1-4.5-0.2-7.2 -0.4-8.7-1.5-15-2.4-36.5 -1 21.5-2 27.8-2.4 36.5 -0.1 2.7-0.2 5.1-0.2 7.2 0 4 1.2 5.8 2.6 5.8C381.8 787.7 383 785.9 383 781.9z"/>
    <path class="st2" d="M499 773.9c0-2.1-0.1-4.5-0.2-7.2 -0.4-8.7-1.5-15-2.4-36.5 -1 21.5-2 27.8-2.4 36.5 -0.1 2.7-0.2 5.1-0.2 7.2 0 4 1.2 5.8 2.6 5.8C497.8 779.7 499 777.9 499 773.9z"/>
    <path class="st2" d="M631 778.9c0-2.1-0.1-4.5-0.2-7.2 -0.4-8.7-1.5-15-2.4-36.5 -1 21.5-2 27.8-2.4 36.5 -0.1 2.7-0.2 5.1-0.2 7.2 0 4 1.2 5.8 2.6 5.8C629.8 784.7 631 782.9 631 778.9z"/>
  </g>
  <path class="st3" d="M-0.3 79.6c0 25.2 20.5 45.7 45.7 45.7 24.8 0 45-19.7 45.7-44.3 4.5 3.6 10.2 5.7 16.4 5.7 12.9 0 23.6-9.2 25.9-21.4 3.1 2.7 7.2 4.4 11.7 4.4 6.5 0 12.2-3.5 15.3-8.7 -2.5 5.7-4 12-4 18.7 0 25.2 20.5 45.7 45.7 45.7 24.8 0 45-19.7 45.7-44.3 4.5 3.6 10.2 5.7 16.4 5.7 8.5 0 16.1-4.1 20.9-10.3 0.5 22.4 18.9 40.4 41.4 40.4 22.4 0 40.7-17.8 41.4-40 4.8 6.1 12.3 10 20.7 10 12.9 0 23.6-9.2 25.9-21.4 3.1 2.7 7.2 4.4 11.7 4.4 3.6 0 7-1.1 9.8-2.9 2.9 11.5 13.2 20 25.6 20 5.6 0 10.8-1.8 15.1-4.7 1.2 24.2 21.2 43.4 45.7 43.4 25.2 0 45.7-20.5 45.7-45.7 0-5.3-0.9-10.4-2.6-15.1 3.2 3.2 7.6 5.1 12.5 5.1 4.7 0 9.1-1.9 12.3-4.9 2.1 12.4 13 21.9 26 21.9 5.6 0 10.8-1.8 15.1-4.7 1.2 24.2 21.2 43.4 45.7 43.4 24.8 0 45-19.7 45.7-44.3 4.5 3.6 10.2 5.7 16.4 5.7 5.6 0 10.8-1.8 15.1-4.7 1.3 24.1 21.2 43.3 45.6 43.3 0.1 0 0.3 0 0.4 0V33.8c-0.2 0-0.3 0-0.4 0 -0.5 0-1 0-1.5 0L727.2 9H488l-321.8 2.9 -166.5 22v40.5l0.3 0C-0.2 76.1-0.3 77.8-0.3 79.6zM362.9 54.9c0 0.1 0 0.2-0.1 0.3 0-0.1-0.1-0.2-0.1-0.3L362.9 54.9z"/>
  <path class="st4" d="M800.1 40.5l0.3 0V0H1.7c-0.5 0-1 0-1.5 0C0 0-0.1 0-0.3 0v91.4c0.1 0 0.3 0 0.4 0 24.4 0 44.4-19.2 45.6-43.3 4.3 3 9.5 4.7 15.1 4.7 6.2 0 11.9-2.1 16.4-5.7C78 71.8 98.2 91.5 123 91.5c24.5 0 44.4-19.2 45.7-43.4 4.3 3 9.5 4.7 15.1 4.7 13.1 0 23.9-9.5 26-21.9 3.2 3 7.5 4.9 12.3 4.9 4.9 0 9.3-2 12.5-5.1 -1.7 4.7-2.6 9.8-2.6 15.1 0 25.2 20.5 45.7 45.7 45.7 24.5 0 44.4-19.2 45.6-43.4 4.3 3 9.5 4.7 15.1 4.7 12.4 0 22.7-8.5 25.6-20 2.8 1.8 6.2 2.9 9.8 2.9 4.5 0 8.6-1.6 11.7-4.4 2.3 12.2 13 21.4 25.9 21.4 8.4 0 15.8-3.9 20.7-10 0.7 22.2 19 40 41.4 40 22.5 0 40.9-18 41.4-40.4 4.8 6.3 12.4 10.3 20.9 10.3 6.2 0 11.9-2.1 16.4-5.7 0.7 24.6 20.9 44.3 45.7 44.3 25.2 0 45.7-20.5 45.7-45.7 0-6.6-1.4-13-4-18.7 3.1 5.2 8.8 8.7 15.3 8.7 4.5 0 8.6-1.6 11.7-4.4 2.3 12.2 13 21.4 25.9 21.4 6.2 0 11.9-2.1 16.4-5.7 0.7 24.6 20.9 44.3 45.7 44.3 25.2 0 45.7-20.5 45.7-45.7C800.4 44 800.3 42.2 800.1 40.5zM437.5 21.1c0 0.1-0.1 0.2-0.1 0.3 0-0.1 0-0.2-0.1-0.3L437.5 21.1z"/>
  <path class="st5" d="M559.7 604.7l-12-12.7c0 0-36.6 7-47.9 26.8 -11.3 19.7-34 84.5-20.4 99.3 10.1 11 25.3 7.9 32.3 0.5C518.9 711 559.7 604.7 559.7 604.7z"/>
  <path class="st6" d="M732.2 446.2l24.6 22.7c0 0-36.2 2.2-39.3 20.9l-41.2-33.4L732.2 446.2z"/>
  <path class="st7" d="M423.8 515.1c17.6-64.3 52.8-133.7 93.3-133.7 -110.5 0-161 33.5-201.4 108.4C317.9 489.4 376.1 498.4 423.8 515.1z"/>
  <path class="st7" d="M609.5 515.1c-17.6-64.3-52.8-133.7-93.3-133.7 110.5 0 161 33.5 201.4 108.4C715.3 489.4 657.2 498.4 609.5 515.1z"/>
  <path class="st6" d="M423.8 515.1c0.2 0.1 0.4 0.1 0.6 0.2 0 0 92.8-28.4 185.5 0 0 0 0.2-0.1 0.5-0.2 -17.6-64.3-52.8-133.7-93.3-133.7 0 0 0 0 0 0C476.6 381.4 441.4 450.8 423.8 515.1z"/>
  <path class="st8" d="M531.9 673.8l-0.3-0.3 0 0C531.6 673.5 531.7 673.6 531.9 673.8z"/>
  <path class="st9" d="M572.7 567.5h50.1v11.8h0.2c1.8 4 4.2 7.6 7.2 10.8 -8.4-2.4-49.7-14.5-57.4-20.4V567.5z"/>
  <path class="st10" d="M572.7 586.4v-16.6c7.8 5.9 49 17.9 57.4 20.4 3.3 3.6 7.3 6.7 11.8 8.9 -4.9 7 0.6 21.5-7 25.4l-5.3 10.4 -4.3 7.6 -29 42.3L572.7 639l-5.7-5.3 -2.9-7.4 -6.5-7.4c-6.9-3.9 2.3-13.6-2.2-20.1C562.6 595.5 568.6 593.2 572.7 586.4z"/>
  <path class="st5" d="M541.9 593.1c11.7-3.3 20.7-5.3 20.7-5.3l25.1 14.8 12.6 1.3 3.3 196.5 -72.9 0.1 -10.3-150.7C530.5 640.8 546.7 624.4 541.9 593.1z"/>
  <path class="st11" d="M703.6 736.3l-3.8 7.1c0 0-14.3 1.7-14.6 12.4l-0.8 5.7c0 0-4.1 4.9-1.6 7.1 2.5 2.2 3.5 1.3 4.8 1.4 0 0-1.6 5.6 1.4 7.3 3 1.7 7 0 7 0s0.6 4 3 4.6c2.4 0.6 5.9-0.3 5.9-0.3s-0.2 1.7 2.1 2.7c2.2 1 6.7-2.4 6.7-2.4s12.9-10.9 8.1-27.1l-1.6-4.6 2.9-10.2L703.6 736.3z"/>
  <path class="st12" d="M740.2 659.8c-5.3-14.7-16.8-26.1-28.8-38 -9.3-9.2-19.3-16.2-33.1-22.5 0 0 0 0 0 0 -19.3-6.8-40.2-11.5-40.2-11.5l-25.1 14.8 -12.6 1.3 -1.8 196.5h69.7l14-148.4c0.6-0.1 1.2-0.2 1.8-0.3 7.4 1.2 15 3.4 21.2 7.7 3.7 2.9 6.2 6.4 8 11.5 6.4 18.1 2.3 39.5-12.6 65.6l24.8 14.1c10.1-17.7 16.3-34.8 18.5-50.6C745.9 685.7 744.6 672.2 740.2 659.8z"/>
  <polygon class="st13" points="612.3 602.9 593.4 604.1 571.3 606.6 580.9 632.9 585.8 670 599.8 712.5 625 618.1 "/>
  <polygon class="st14" points="600.8 604.2 600.8 604.2 600.8 604.2 600.9 604.2 600.9 604.2 611 608.9 607.3 616.9 600.9 616.9 600.8 616.9 594.3 616.9 590.6 608.9 "/>
  <polygon class="st14" points="607.3 617.6 594.5 617.6 588.6 673.4 599.8 712.9 614.3 670.6 "/>
  <path class="st15" d="M646.5 514.4c-1.1 7.8 1 14.5 4.9 15.1 3.8 0.6 7.8-5.3 8.9-13 1.1-7.8-1-14.5-4.9-15.1C651.6 500.8 647.6 506.6 646.5 514.4z"/>
  <path class="st11" d="M551.5 513.7c0.7 7.7-1.5 14.1-5 14.5 -3.5 0.3-6.9-5.6-7.7-13.3 -0.7-7.7 1.5-14.1 5-14.5C547.4 500.2 550.8 506.1 551.5 513.7z"/>
  <path class="st11" d="M598.7 456.1c-46.2-1.2-51.4 17.9-51.4 54.1 0 36.7 22.9 66.5 51.4 67.3 0.4 0 0.8 0 1.2 0 0 0 0 0 0 0V456.1C599.5 456.1 599.1 456.1 598.7 456.1z"/>
  <path class="st15" d="M652.5 510.2c0-37.2-22.4-54.1-51.4-54.1 -0.4 0-0.8 0-1.2 0v121.4C629 577.5 652.5 547.3 652.5 510.2z"/>
  <path class="st16" d="M547.1 514.4c0 0-5.3-38.6-1.3-42.8 4-4.2 6.2-2.8 6.2-2.8s-5-7.7-3.3-11.2c1.7-3.5 16.2-28.4 59.8-22.9 43.6 5.5 46 46 46 46s-1.2 31.6-2.5 37.4l-2.3-0.3 -4.7-38.4c0 0-5.3 9.5-21.6 4 -16.2-5.5-35.9-31.6-65.8-13.9 0 0-4.7 5.8-4.8 8.5 -0.2 2.7-5 31.4-3 38.9L547.1 514.4z"/>
  <path class="st16" d="M557.8 497.4c-0.8 0-1.5-0.4-1.9-1.2 -0.5-1-0.1-2.3 1-2.8 0.1-0.1 3.5-1.7 9-2.6 5.1-0.9 13.1-1.3 22.5 1.4 1.1 0.3 1.7 1.5 1.4 2.6 -0.3 1.1-1.5 1.7-2.6 1.4 -16.4-4.8-28.4 0.9-28.5 0.9C558.5 497.3 558.1 497.4 557.8 497.4z"/>
  <path class="st16" d="M637.6 497.4c-0.3 0-0.6-0.1-0.9-0.2 -0.1 0-3.1-1.5-8.1-2.3 -4.6-0.8-11.9-1.1-20.4 1.3 -1.1 0.3-2.3-0.3-2.6-1.4 -0.3-1.1 0.3-2.3 1.4-2.6 9.4-2.7 17.4-2.3 22.5-1.4 5.6 0.9 8.9 2.6 9 2.6 1 0.5 1.5 1.8 1 2.8C639.2 496.9 638.4 497.4 637.6 497.4z"/>
  <path class="st16" d="M650.4 515.4c-7.2 24-20.4 30.1-26.5 31.6 -0.4-1.3-2.3-5.9-10-7.7 -3.2-0.9-7-1.7-9.9-1.7 -0.8 0-1.7-0.1-2.6-0.1h-3.2c-0.9 0-1.8 0-2.6 0.1 -2.8 0-6.5 0.7-9.6 1.6 -7.9 1.8-9.8 6.4-10.2 7.8 -6.1-1.6-19.2-7.7-26.4-31.6l-2.2-1c0 0 4 65.7 52.5 66.3v0c0 0 0.2 0 0.3 0 0 0 0 0 0 0 0.1 0 0.2 0 0.2 0v0c48.5-0.6 52.5-66.3 52.5-66.3L650.4 515.4z"/>
  <ellipse class="st11" cx="592.9" cy="532.2" rx="5.7" ry="4"/>
  <ellipse class="st15" cx="607.7" cy="532.2" rx="5.7" ry="4"/>
  <path class="st11" d="M594.4 534.3c0 2.1 2.5 3.9 5.5 4v-7.9C596.9 530.4 594.4 532.2 594.4 534.3z"/>
  <path class="st15" d="M600.1 530.4c-0.1 0-0.1 0-0.2 0v7.9c0.1 0 0.1 0 0.2 0 3.2 0 5.7-1.8 5.7-4C605.8 532.1 603.3 530.4 600.1 530.4z"/>
  <polygon class="st17" points="600.8 604.1 601.1 604.4 600.8 604.2 "/>
  <polygon class="st18" points="621.2 624.4 601.1 604.4 622.3 621.5 "/>
  <polygon class="st18" points="600.5 603.9 600.8 603.7 600.8 604.1 "/>
  <polygon class="st13" points="600.8 603.7 629.6 586 632.8 593.1 622.3 621.5 601.1 604.4 600.8 604.1 "/>
  <polygon class="st18" points="580.6 624.4 600.7 604.4 579.5 621.5 "/>
  <polygon class="st13" points="600.9 603.7 572.1 586 569 593.1 579.5 621.5 600.7 604.4 601 604.1 "/>
  <path class="st19" d="M626.2 587.9l-26.3 125 30-72.3 -5.5-8.2 15 1.1 4.5-44.9C643.8 588.6 631.4 582.6 626.2 587.9z"/>
  <path class="st19" d="M574 586.3l25.9 126.6L570.3 639l5.4-8.2 -15 1.1 -4-43.4C556.8 588.5 568.7 581.1 574 586.3z"/>
  <path class="st20" d="M586.5 550c0 0 0.1 0.6 0.5 1.5 0.7 1.9 2.5 5.4 5.9 7.8 1.9 1.3 4.2 2.2 7.1 2.4 2.9-0.2 5.3-1.2 7.1-2.4 3.5-2.4 5.2-5.9 5.9-7.8 0.3-0.9 0.5-1.5 0.5-1.5H586.5z"/>
  <path class="st15" d="M600.1 562.8C600 562.8 600 562.8 600.1 562.8c-2.9-0.2-5.5-1.1-7.7-2.6 -3.7-2.5-5.6-6.3-6.3-8.3 -0.4-0.9-0.5-1.5-0.5-1.6 -0.1-0.3 0-0.6 0.2-0.8 0.2-0.3 0.5-0.4 0.8-0.4h27.1c0.3 0 0.6 0.1 0.8 0.4 0.2 0.3 0.3 0.6 0.2 0.9 0 0-0.2 0.6-0.5 1.6 -0.8 2-2.6 5.7-6.3 8.3C605.6 561.7 603 562.5 600.1 562.8 600.1 562.8 600.1 562.8 600.1 562.8zM587.9 551.1C587.9 551.1 587.9 551.1 587.9 551.1c0.7 1.8 2.3 5.1 5.6 7.3 1.9 1.3 4.1 2.1 6.5 2.2 2.4-0.2 4.7-1 6.5-2.3 3.2-2.2 4.9-5.5 5.6-7.3 0 0 0 0 0 0H587.9z"/>
  <path class="st13" d="M607.2 559.3h-14.3c1.9 1.3 4.2 2.2 7.1 2.4C603 561.5 605.3 560.5 607.2 559.3z"/>
  <path class="st13" d="M586.5 550c0 0 0.1 0.6 0.5 1.4 0.1 0.3 0.2 0.6 0.4 0.9h25.4c0.1-0.3 0.3-0.6 0.4-0.9 0.3-0.9 0.5-1.4 0.5-1.4H586.5z"/>
  <path class="st20" d="M587.3 552.4c0.9 2 2.6 4.9 5.6 6.9h14.3c3-2 4.7-4.9 5.6-6.9H587.3z"/>
  <path class="st13" d="M584.2 508c0 0-4.7 4.5-10.6 4.5 -5.8 0-10.6-4.5-10.6-4.5s4.7-4.5 10.6-4.5C579.5 503.5 584.2 508 584.2 508z"/>
  <path class="st6" d="M301.1 445l-24.7 23.4c0 0 36.3 2.3 39.4 21.6l41.2-34.5L301.1 445z"/>
  <path class="st13" d="M636.7 508c0 0-4.7 4.5-10.6 4.5 -5.8 0-10.6-4.5-10.6-4.5s4.7-4.5 10.6-4.5C632 503.5 636.7 508 636.7 508z"/>
  <circle class="st21" cx="573.7" cy="508" r="4.4"/>
  <circle class="st13" cx="574.7" cy="506.8" r="1.5"/>
  <circle class="st21" cx="626.2" cy="508" r="4.4"/>
  <circle class="st13" cx="627.2" cy="506.8" r="1.5"/>
  <path class="st22" d="M521 693.6c0 1.8-1.5 3.3-3.3 3.3l0 0c-1.8 0-3.3-1.5-3.3-3.3V323.3c0-1.8 1.5-3.3 3.3-3.3l0 0c1.8 0 3.3 1.5 3.3 3.3V693.6z"/>
  <polygon class="st23" points="517.2 328.8 517.2 328.8 517.2 328.8 "/>
  <path class="st24" d="M405.6 473.9c21-76.9 63.1-145.1 111.6-145.1 -132.1 0-192.4 50.6-240.8 140.2C279.1 468.4 348.6 453.8 405.6 473.9z"/>
  <path class="st25" d="M627.6 473.9c-21-76.9-63.1-145.1-111.6-145.1 132.1 0 192.4 50.6 240.8 140.2C754.2 468.4 684.7 453.8 627.6 473.9z"/>
  <path class="st26" d="M405.6 473.9c0.2 0.1 0.5 0.2 0.7 0.2 0 0 110.9-34 221.8 0 0 0 0.2-0.1 0.7-0.2 -21-76.9-63.1-145.1-111.6-145.1l0 0C468.7 328.8 426.6 397 405.6 473.9z"/>
  <path class="st22" d="M524.5 722.2c0 2.4-1.9 4.3-4.3 4.3h-4.6c-2.4 0-4.3-1.9-4.3-4.3v-45.8c0-2.4 1.9-4.3 4.3-4.3h4.6c2.4 0 4.3 1.9 4.3 4.3V722.2z"/>
  <path class="st11" d="M496.4 693.1c0 0 9.2-16 14.7-16.4v10.5c0 0 8.1-2.3 15.4-0.4 0 0 2.7 0.8 3.4 3.6 0.6 2.7-1.1 4.2-1.1 4.2s1.7 1.7 1.7 4c0 2.3-1.9 4.2-1.9 4.2s1.9 1.7 1.9 4.2c0 2.5-1.7 3.6-1.7 3.6s1.7 1.7 1.7 3.6c0 1.9-2.5 2.7-2.5 2.7s-12.2 2.7-16.2 1.7c-4-1.1-9 0-9 0S492.5 714.3 496.4 693.1z"/>
  <path class="st13" d="M41.2 571.2l-3.7 34.4H23.6L16.5 541h9.9l5.4 50.8 4.9-50.8h9.8l5.1 51.2 5.2-51.2h8.8l-7.2 64.5H44.9L41.2 571.2z"/>
  <path class="st13" d="M80.7 568.2h13.9v9.2H80.7v18.9h17.5v9.2H70.6V541h27.6v9.2H80.7V568.2z"/>
  <path class="st13" d="M104.5 541h10.1v55.3h16.7v9.2h-26.8V541z"/>
  <path class="st13" d="M165.1 581.5v8.6c0 10.3-5.2 16.2-15.1 16.2 -9.9 0-15.1-5.9-15.1-16.2v-33.5c0-10.3 5.2-16.2 15.1-16.2 9.9 0 15.1 5.9 15.1 16.2v6.3h-9.6v-6.9c0-4.6-2-6.4-5.2-6.4s-5.3 1.8-5.3 6.4v34.8c0 4.6 2 6.3 5.3 6.3s5.2-1.7 5.2-6.3v-9.2H165.1z"/>
  <path class="st13" d="M170.4 556.5c0-10.3 5.4-16.2 15.4-16.2 9.9 0 15.4 5.9 15.4 16.2V590c0 10.3-5.4 16.2-15.4 16.2 -9.9 0-15.4-5.9-15.4-16.2V556.5zM180.6 590.7c0 4.6 2 6.4 5.3 6.4s5.2-1.8 5.2-6.4v-34.8c0-4.6-2-6.4-5.2-6.4s-5.3 1.8-5.3 6.4V590.7z"/>
  <path class="st13" d="M229.2 586.8l6.9-45.8h14.1v64.5h-9.6v-46.2l-7 46.2H224l-7.6-45.6v45.6h-8.8V541h14.1L229.2 586.8z"/>
  <path class="st13" d="M267.7 568.2h13.9v9.2h-13.9v18.9h17.5v9.2h-27.6V541h27.6v9.2h-17.5V568.2z"/>
  <path class="st13" d="M15.8 634.6h31.3v9.2H36.5v55.3H26.4v-55.3H15.8V634.6z"/>
  <path class="st13" d="M50.7 650.1c0-10.3 5.4-16.2 15.4-16.2 9.9 0 15.4 5.9 15.4 16.2v33.5c0 10.3-5.4 16.2-15.4 16.2 -9.9 0-15.4-5.9-15.4-16.2V650.1zM60.9 684.3c0 4.6 2 6.4 5.3 6.4s5.2-1.8 5.2-6.4v-34.8c0-4.6-2-6.4-5.2-6.4s-5.3 1.8-5.3 6.4V684.3z"/>
  <path class="st13" d="M123.8 680.4l6.9-45.8h14.1v64.5h-9.6v-46.2l-7 46.2h-9.6l-7.6-45.6v45.6h-8.8v-64.5h14.1L123.8 680.4z"/>
  <path class="st13" d="M151.3 650.1c0-10.3 5.4-16.2 15.4-16.2 9.9 0 15.4 5.9 15.4 16.2v33.5c0 10.3-5.4 16.2-15.4 16.2 -9.9 0-15.4-5.9-15.4-16.2V650.1zM161.4 684.3c0 4.6 2 6.4 5.3 6.4s5.2-1.8 5.2-6.4v-34.8c0-4.6-2-6.4-5.2-6.4s-5.3 1.8-5.3 6.4V684.3z"/>
  <path class="st13" d="M218.9 649.5v2.3c0 6.6-2 10.9-6.5 13 5.4 2.1 7.6 7 7.6 13.8v5.2c0 9.9-5.3 15.3-15.4 15.3h-15.9v-64.5h15.3C214.4 634.6 218.9 639.5 218.9 649.5zM198.7 643.8v17h4c3.8 0 6.1-1.7 6.1-6.8v-3.6c0-4.6-1.6-6.6-5.2-6.6H198.7zM198.7 670.1v19.8h5.8c3.4 0 5.2-1.6 5.2-6.4v-5.6c0-6-1.9-7.8-6.5-7.8H198.7z"/>
  <path class="st13" d="M226 634.6h10.1v64.5H226V634.6z"/>
  <path class="st13" d="M243.5 634.6h10.1v55.3h16.7v9.2h-26.8V634.6z"/>
  <path class="st13" d="M284.8 661.8h13.9v9.2h-13.9v18.9h17.5v9.2h-27.6v-64.5h27.6v9.2h-17.5V661.8z"/>
  <path class="st13" d="M308.6 699.1v-9.8h9.8v8.8l-4.4 10.2h-4.1l2.7-9.2H308.6z"/>
  <path class="st13" d="M372.8 699.1h-10.2l-1.8-11.7h-12.4l-1.8 11.7h-9.3l10.3-64.5h14.8L372.8 699.1zM349.7 678.6h9.8l-4.9-32.6L349.7 678.6z"/>
  <path class="st13" d="M377.5 634.6h10.1v55.3h16.7v9.2h-26.8V634.6z"/>
  <path d="M46.7 761.1c0 0.2 0 0.5-0.1 0.8 0 0.2-0.1 0.3-0.3 0.3h-9.6c-0.1 0-0.1-0.1-0.1-0.3 0-0.1 0-0.2 0-0.4 0-0.2 0-0.3 0-0.3 0-0.2 0.1-0.4 0.3-0.4h2.1c0.6 0 0.8-0.5 0.7-1.6 0-0.3-0.3-1.8-0.8-4.6s-0.8-4.4-0.9-4.7 -0.2-0.5-0.5-0.5h-12c-0.1 0-0.2 0.1-0.3 0.3 -0.9 1.7-2 4-3.1 6.9 -0.5 1.4-0.8 2.4-0.9 3.2 -0.1 0.7 0 1.1 0.3 1.1h2.6c0.2 0 0.3 0.1 0.2 0.4 0 0.2-0.1 0.4-0.1 0.8 0 0.2-0.1 0.3-0.2 0.3h-8.9c-0.2 0-0.3-0.1-0.3-0.3 0.1-0.3 0.1-0.6 0.1-0.9 0.1-0.2 0.1-0.3 0.2-0.3H17c0.5 0 1-0.5 1.7-1.6 2.5-4.9 5.1-10 7.8-15.2 2.5-5 5.2-10.1 7.9-15.5 0.4-0.7 0.8-1.6 1.3-2.6 0.3-0.5 0.6-0.9 0.9-0.9 0.4-0.1 1.1-0.3 1.8-0.6 0.1 0 0.2-0.1 0.3-0.1 0.2 0.1 0.3 0.3 0.4 0.7 0 0.1-0.1 0.2-0.2 0.3 -0.1 0.1-0.3 0.3-0.7 0.8s-0.6 0.8-0.6 1.1c0 0.5 0 1.1 0.1 1.8 0.6 3.5 1.7 9.1 3.4 16.7 0.7 3.4 1.6 7.5 2.7 12 0.5 2 1.2 3 1.8 3h1C46.7 760.7 46.7 760.8 46.7 761.1zM37.5 746.8c-0.3-1.6-0.7-3.9-1.3-7 -0.3-1.4-0.7-4.1-1.4-8 -0.1-0.3-0.1-0.4-0.2-0.4 -0.1 0-0.2 0.1-0.3 0.4 -1.2 2.2-2.4 4.6-3.7 7.3 -0.1 0.2-0.8 1.5-2 3.9 -1.2 2.4-1.8 3.6-1.9 3.7 -0.1 0.2-0.2 0.3-0.2 0.3 0 0.1 0.1 0.2 0.2 0.2h10.5C37.4 747.2 37.5 747.1 37.5 746.8z"/>
  <path d="M83 759.3c0.1 0.2 0.1 0.3-0.1 0.3 -0.8 0.7-2 1.4-3.6 2 -1.5 0.5-2.8 0.8-3.8 0.8 -0.4 0-0.5-0.2-0.5-0.7 0.2-2.1 0.5-4.6 1-7.4 0.8-4.5 1.2-8.1 1.2-10.7 0-1.6-0.5-2.5-1.6-2.5 -1.7 0-3.3 1.5-5.1 4.4 -1.4 2.3-2.4 4.9-3 7.8 -0.4 1.6-0.8 4.4-1.3 8.3 0 0.4-0.2 0.5-0.5 0.5h-2.6c-0.3 0-0.4-0.2-0.3-0.5 0.4-2.2 1-5.9 1.8-10.9 0.4-3.2 0.6-5.6 0.6-7.1 0-1.6-0.5-2.5-1.6-2.5 -1.7 0-3.3 1.5-5.1 4.4 -1.4 2.3-2.4 4.9-3 7.8 -0.4 1.6-0.8 4.4-1.3 8.3 -0.1 0.4-0.2 0.5-0.5 0.5h-2.6c-0.3 0-0.4-0.2-0.3-0.5 0.4-2.2 1-5.8 1.8-10.9 0.5-3.9 0.9-7 0.9-9.3 0-0.3-0.1-0.4-0.3-0.4 -0.4 0-1.3 0.5-2.7 1.6 -0.3 0.2-0.4 0.3-0.5 0.2 -0.1-0.1-0.2-0.2-0.3-0.4 -0.1-0.1-0.1-0.3 0.1-0.4 1.6-1.6 3.2-2.8 5-3.7 1-0.5 1.7-0.8 2-0.8 0.2 0 0.3 0.3 0.3 0.8 0 0.3 0 0.8-0.1 1.5 -0.1 1.6-0.4 3.9-0.8 6.9 0 0.4-0.1 0.6-0.1 0.7 0 0.1 0.1 0.1 0.1 0 0.1-0.1 0.2-0.3 0.3-0.6 1-2.4 2.3-4.5 3.9-6.2 1.8-2 3.4-3 5-3 1.9 0 2.9 1.7 2.9 5.2 0 1.4-0.1 2.7-0.3 3.9 -0.1 0.5-0.1 0.7 0 0.8 0.1-0.1 0.2-0.3 0.4-0.8 1-2.3 2.3-4.4 3.8-6.1 1.8-2 3.4-3 5-3 2 0 3 1.7 3 5.2 0 1.8-0.4 5.3-1.2 10.6 -0.4 2.5-0.6 4.7-0.6 6.4 0 0.5 0.2 0.7 0.5 0.6 1.1-0.3 2.2-0.7 3.1-1.4 0.2-0.1 0.3-0.1 0.4 0.1C82.8 759 82.9 759.1 83 759.3z"/>
  <path d="M102.6 740.2c0 0.2-0.3 0.5-0.8 0.9 -3.3 2.7-7.5 5.4-12.5 8 -0.3 0.1-0.5 0.3-0.6 0.7 -0.1 0.5-0.2 1.3-0.2 2.4 0 2.3 0.5 4.1 1.6 5.3 0.9 1.1 2.1 1.6 3.5 1.6 2.2 0 4.5-1 6.7-3 0.1-0.1 0.2-0.1 0.4-0.1 0.1 0 0.2 0.2 0.3 0.4 0.1 0.2 0.1 0.3 0 0.4 -0.7 1-1.7 1.9-3 2.8 -2.7 1.8-5.1 2.7-7.4 2.7 -1.5 0-2.8-0.9-3.8-2.6 -1.1-1.9-1.7-4.5-1.7-7.7 0-4.4 1.6-8.1 4.9-11.3 2.2-2.2 4.2-3.2 6-3.2 2.5 0 3.9 0.9 4.1 2.7 0.1 0.3 0.2 0.4 0.5 0.4 0.1 0 0.3-0.2 0.7-0.6 0.4-0.4 0.6-0.6 0.7-0.6C102.4 739.6 102.6 739.8 102.6 740.2zM97 742.7c0-0.7-0.2-1.4-0.7-1.9 -0.5-0.5-1.1-0.8-1.8-0.8 -1.3 0-2.4 0.4-3.2 1.3 -1 1-1.7 3-2.2 6.1 0 0.2 0 0.4 0.1 0.4 0.1 0 0.2 0 0.3-0.1 2.8-1.3 5.2-2.8 7.3-4.4C96.9 743.3 97 743.1 97 742.7z"/>
  <path d="M121.9 739.1c0 0.5-0.2 1-0.7 1.5 -0.5 0.5-1.1 0.8-1.8 0.8 -0.8 0-1.8-0.1-3-0.3 -0.3-0.1-0.5 0-0.7 0.2 -1.1 1-2.3 2.5-3.5 4.4 -1.6 2.7-2.6 5.4-3.1 8.1 -0.3 1.5-0.7 4.1-1.1 7.9 -0.1 0.4-0.2 0.5-0.6 0.5H105c-0.3 0-0.5-0.2-0.4-0.5 0.4-2.2 1-5.8 1.8-10.9 0.6-4.1 0.8-7.3 0.8-9.3 0-0.3-0.1-0.5-0.3-0.4 -0.8 0.3-1.7 0.9-2.8 1.8 -0.1 0.1-0.3 0.1-0.3 0.1 -0.1-0.1-0.2-0.2-0.4-0.4 -0.1-0.1-0.1-0.2 0.1-0.3 1.6-1.6 3.4-3 5.5-4 0.7-0.4 1.2-0.6 1.5-0.6 0.3 0 0.4 0.2 0.4 0.5 0 0.5 0 0.9-0.1 1.3 -0.3 3.1-0.5 5.7-0.8 7.7 -0.1 0.5-0.1 0.7-0.1 0.8 0.1-0.1 0.2-0.3 0.4-0.7 0.9-2.2 2.4-4.4 4.3-6.5 1.9-2.1 3.6-3.2 5.3-3.2C121.2 737.5 121.9 738 121.9 739.1z"/>
  <path d="M133.5 759.4c0 0.1 0 0.2-0.1 0.3 -0.9 0.7-2.2 1.3-3.8 1.9s-3 0.9-4 0.9c-0.4 0-0.6-0.2-0.6-0.6 0-1.6 0.3-4.5 0.9-8.7 0.9-6.9 1.4-10.8 1.4-11.9 0-0.4-0.1-0.5-0.3-0.4 -1.3 0.7-2.4 1.5-3.3 2.2 -0.1 0.1-0.3 0.1-0.4 0 -0.1-0.1-0.2-0.2-0.4-0.4 -0.1-0.1-0.1-0.2 0.1-0.3 1.4-1.4 2.8-2.5 4.3-3.4 1.7-1 2.7-1.5 3.2-1.5 0.2 0 0.4 0.1 0.4 0.4 0 1.2-0.2 3.9-0.7 8.1 -0.3 1.7-0.6 4.2-1 7.4 -0.4 2.8-0.6 4.9-0.6 6.2 0 0.4 0.2 0.5 0.5 0.5 1.2 0 2.5-0.4 3.9-1.3 0.1-0.1 0.3-0.1 0.3 0.1C133.4 759 133.5 759.2 133.5 759.4zM132.1 730.3c0 1.7-0.8 2.6-2.3 2.6 -1.1 0-1.7-0.7-1.7-2.2 0-0.7 0.2-1.3 0.6-1.8 0.4-0.5 1-0.7 1.6-0.7C131.6 728.2 132.1 728.9 132.1 730.3z"/>
  <path d="M153.3 740.1c0 0.4-0.2 0.8-0.5 1.1 -0.4 0.3-0.8 0.5-1.3 0.5 -1 0-2-0.5-2.9-1.5 -0.2-0.3-0.5-0.4-0.8-0.4 -1.4 0-2.8 0.7-4.2 2.1 -2.2 2-3.3 5.6-3.3 10.7 0 2 0.4 3.6 1.2 4.7 0.8 1.3 2 1.9 3.4 1.9 2.1 0 4.1-0.8 6-2.3 0.1-0.1 0.2-0.1 0.4 0.1 0.1 0.1 0.2 0.2 0.3 0.4 0.1 0.1 0.1 0.2-0.1 0.4 -1.2 1.3-2.6 2.4-4.3 3.2 -1.8 0.9-3.3 1.4-4.7 1.4 -1.6 0-3-0.8-4.1-2.3 -1.2-1.6-1.7-3.8-1.7-6.5 0-5.1 2-9.3 6.1-12.8 2.4-2.1 4.9-3.1 7.3-3.1 1 0 1.9 0.2 2.5 0.7C153 738.9 153.3 739.4 153.3 740.1z"/>
  <path d="M176.3 759c0.1 0.1 0 0.2-0.1 0.4 -0.6 0.6-1.7 1.3-3.3 2 -1.7 0.7-2.8 1.1-3.6 1.1 -0.3 0-0.5-0.2-0.5-0.5 0-2.3 0.2-4.9 0.7-7.8 0.1-0.4 0-0.6-0.1-0.6 -0.1 0-0.2 0.2-0.4 0.5 -0.8 1.9-1.9 3.7-3.4 5.4 -1.1 1.1-1.8 1.9-2.2 2.2 -0.8 0.6-1.7 0.9-2.7 0.9 -1.5 0-2.8-0.8-3.7-2.4s-1.4-3.7-1.4-6.5c0-4.4 1.5-8.3 4.6-11.7 2.5-2.7 5.3-4.1 8.6-4.1 1.2 0 2.3 0.1 3.3 0.4 0.4 0.1 0.7 0 0.8-0.3 0.3-0.7 0.4-1.3 0.5-1.8 0.1-0.2 0.2-0.4 0.4-0.4h1.8c0.1 0 0.2 0 0.2 0 0.1 0 0 0.1 0 0.3 -0.7 1.8-1.2 3.6-1.6 5.6 -0.6 3.2-1 6.1-1.3 8.6 -0.5 3.9-0.7 7-0.7 9.3 0 0.3 0.1 0.4 0.3 0.4 0.8 0 1.8-0.5 3.1-1.3 0.1-0.1 0.3-0.1 0.3 0C176.1 758.7 176.2 758.8 176.3 759zM171.3 740c0.1-0.3-0.1-0.6-0.6-0.7 -0.5-0.1-1.2-0.2-2-0.2 -2 0-3.9 1-5.9 3 -2.6 2.6-4 6.3-4 10.9 0 2.1 0.4 3.7 1.1 4.8 0.6 1 1.3 1.5 2.2 1.5 0.9 0 1.9-0.5 3-1.6 1.1-1 2-2.4 2.8-4.1 0.9-1.9 1.7-4.8 2.6-8.8C170.9 742.7 171.1 741.1 171.3 740z"/>
  <path d="M182.3 738.4c-0.5 0.4-0.8 0.6-0.9 0.6 -0.2 0-0.3-0.2-0.3-0.5 0-0.2 0.3-0.6 0.7-1 1.3-1.3 2-2.8 2.2-4.3 0.1-0.7 0-1.3-0.2-1.8 -0.1-0.3-0.4-0.4-0.9-0.4 -0.7 0-1.2-0.2-1.7-0.6 -0.5-0.4-0.7-1-0.6-1.7 0.1-1.1 0.9-1.6 2.4-1.6 0.9 0 1.7 0.4 2.4 1.2 0.6 0.8 1 1.8 1 3.1C186.3 734.1 184.9 736.4 182.3 738.4z"/>
  <path d="M202.9 740.1c0 0.4-0.2 0.7-0.5 1 -0.3 0.3-0.7 0.5-1 0.5 -0.9 0-1.8-0.7-2.5-2.2 -0.2-0.3-0.4-0.4-0.8-0.4 -1 0-1.9 0.3-2.7 1 -0.8 0.7-1.2 1.5-1.2 2.5 0 1.7 0.7 3.1 2 4.2 1.2 1.1 2.3 2 3.3 2.8 2.1 1.8 3.2 4 3.2 6.5 0 1.9-0.8 3.4-2.3 4.6 -1.4 1.1-3.1 1.7-5.2 1.7 -1.9 0-3.5-0.4-4.7-1.1 -1.1-0.7-1.7-1.5-1.7-2.5 0-1.1 0.6-1.6 1.7-1.6 0.8 0 1.7 1.1 2.6 3.4 0.1 0.2 0.3 0.4 0.6 0.5 0.3 0.1 0.7 0.1 1.3 0.1 1.3 0 2.3-0.4 3.2-1.2 0.9-0.8 1.3-1.7 1.3-2.8 0-1.8-0.7-3.4-2.2-4.6 -0.7-0.6-1.7-1.5-3.1-2.6 -2-1.6-3-3.6-3-5.8 0-1.9 0.7-3.4 2-4.6 1.3-1.2 3-1.8 4.9-1.8C201.3 737.7 202.9 738.5 202.9 740.1z"/>
  <path d="M244.6 761c0 0.2-0.1 0.4-0.1 0.8 0 0.2-0.1 0.3-0.2 0.3H238c-0.2 0-0.5-0.1-0.7-0.3 -1.2-1.3-3-4-5.5-8 -1.7-2.7-2.9-4.9-3.7-6.6 -0.1-0.3-0.3-0.4-0.4-0.4 -0.9 0-2.3-0.1-4.4-0.3 -0.3 0-0.4 0.1-0.4 0.3 -0.1 1.1-0.4 3.9-0.9 8.3 -0.1 1.2-0.2 2.2-0.2 3.1 0 1.8 0.3 2.7 0.8 2.7h4.5c0.2 0 0.2 0.1 0.2 0.3 0 0.3 0 0.6-0.1 0.9 0 0.2-0.1 0.3-0.2 0.3h-12c-0.2 0-0.3-0.1-0.3-0.3 0-0.2 0.1-0.4 0.1-0.8 0-0.2 0.1-0.3 0.3-0.3h2.2c0.3 0 0.4-0.3 0.5-0.8 0.5-4.4 1-9.1 1.6-14.1 0.2-1.6 0.6-5.3 1.2-10.9 0.2-2.3 0.4-4.1 0.4-5.3 0-1.2-0.1-1.9-0.4-1.9h-3.3c-0.2 0-0.3-0.1-0.3-0.2 0.1-0.3 0.1-0.6 0.1-1 0-0.1 0.1-0.2 0.3-0.2h7.4c0.2 0 1.2 0 3-0.1 1.8-0.1 2.8-0.1 3-0.1 1.3 0 2.4 0.1 3.3 0.3 1.7 0.3 3.3 1.3 4.7 2.8 1.2 1.3 1.8 3 1.8 5.2 0 3.3-1 5.9-3 7.9 -1.9 1.8-3.7 3-5.4 3.6 -0.2 0.1-0.2 0.2-0.2 0.3 0.7 1.8 2 4.2 4 7.1 2.1 3.1 3.8 5.2 5.2 6.3 1 0.8 2 1.2 3 1.2C244.5 760.7 244.6 760.8 244.6 761zM236.5 736.6c0.1-0.3 0.1-0.7 0.1-1 0-1.8-0.5-3.3-1.6-4.6 -1.7-2-4.6-3.1-8.8-3.1 -0.6 0-0.9 0.1-1 0.4 0 0.9-0.4 4-1.1 9.3 -0.5 3.8-0.8 6.1-0.8 7 0 0.2 0.1 0.3 0.4 0.4 0.6 0.1 1.7 0.2 3.3 0.2 1.7 0 3-0.2 3.9-0.7 1.6-0.7 2.9-1.9 4-3.5C235.8 739.6 236.3 738.1 236.5 736.6z"/>
  <path d="M267.5 759c0.1 0.1 0 0.2-0.1 0.4 -0.6 0.6-1.7 1.3-3.3 2 -1.7 0.7-2.8 1.1-3.6 1.1 -0.3 0-0.5-0.2-0.5-0.5 0-2.3 0.2-4.9 0.7-7.8 0.1-0.4 0-0.6-0.1-0.6 -0.1 0-0.2 0.2-0.4 0.5 -0.8 1.9-1.9 3.7-3.4 5.4 -1.1 1.1-1.8 1.9-2.2 2.2 -0.8 0.6-1.7 0.9-2.7 0.9 -1.5 0-2.8-0.8-3.7-2.4s-1.4-3.7-1.4-6.5c0-4.4 1.5-8.3 4.6-11.7 2.5-2.7 5.3-4.1 8.6-4.1 1.2 0 2.3 0.1 3.3 0.4 0.4 0.1 0.7 0 0.8-0.3 0.3-0.7 0.4-1.3 0.5-1.8 0.1-0.2 0.2-0.4 0.4-0.4h1.8c0.1 0 0.2 0 0.2 0 0.1 0 0 0.1 0 0.3 -0.7 1.8-1.2 3.6-1.6 5.6 -0.6 3.2-1 6.1-1.3 8.6 -0.5 3.9-0.7 7-0.7 9.3 0 0.3 0.1 0.4 0.3 0.4 0.8 0 1.8-0.5 3.1-1.3 0.1-0.1 0.3-0.1 0.3 0C267.3 758.7 267.4 758.8 267.5 759zM262.5 740c0.1-0.3-0.1-0.6-0.6-0.7 -0.5-0.1-1.2-0.2-2-0.2 -2 0-3.9 1-5.9 3 -2.6 2.6-4 6.3-4 10.9 0 2.1 0.4 3.7 1.1 4.8 0.6 1 1.3 1.5 2.2 1.5 0.9 0 1.9-0.5 3-1.6 1.1-1 2-2.4 2.8-4.1 0.9-1.9 1.7-4.8 2.6-8.8C262.1 742.7 262.3 741.1 262.5 740z"/>
  <path d="M280.8 759.4c0 0.1 0 0.2-0.1 0.3 -0.9 0.7-2.2 1.3-3.8 1.9s-3 0.9-4 0.9c-0.4 0-0.6-0.2-0.6-0.6 0-1.6 0.3-4.5 0.9-8.7 0.9-6.9 1.4-10.8 1.4-11.9 0-0.4-0.1-0.5-0.3-0.4 -1.3 0.7-2.4 1.5-3.3 2.2 -0.1 0.1-0.3 0.1-0.4 0 -0.1-0.1-0.2-0.2-0.4-0.4 -0.1-0.1-0.1-0.2 0.1-0.3 1.4-1.4 2.8-2.5 4.3-3.4 1.7-1 2.7-1.5 3.2-1.5 0.2 0 0.4 0.1 0.4 0.4 0 1.2-0.2 3.9-0.7 8.1 -0.3 1.7-0.6 4.2-1 7.4 -0.4 2.8-0.6 4.9-0.6 6.2 0 0.4 0.2 0.5 0.5 0.5 1.2 0 2.5-0.4 3.9-1.3 0.1-0.1 0.3-0.1 0.3 0.1C280.6 759 280.7 759.2 280.8 759.4zM279.4 730.3c0 1.7-0.8 2.6-2.3 2.6 -1.1 0-1.7-0.7-1.7-2.2 0-0.7 0.2-1.3 0.6-1.8 0.4-0.5 1-0.7 1.6-0.7C278.8 728.2 279.4 728.9 279.4 730.3z"/>
  <path d="M304.5 759.3c0.1 0.2 0.1 0.3-0.1 0.3 -0.8 0.8-2 1.4-3.5 2 -1.4 0.5-2.7 0.8-3.8 0.8 -0.4 0-0.5-0.2-0.5-0.6 0-1 0.3-3.5 1-7.5 0.7-4.5 1.1-7.7 1.1-9.6 0-2.7-0.5-4-1.6-4 -1.3 0-3 1.7-5 5 -1.3 2.1-2.3 4.8-3.1 7.9 -0.8 3-1.4 5.7-1.8 8.1 -0.1 0.4-0.3 0.5-0.6 0.5h-1.7c-0.3 0-0.5-0.2-0.4-0.5 0.4-2.2 1-5.8 1.8-10.9 0.6-4.1 0.8-7.3 0.8-9.3 0-0.4-0.1-0.5-0.3-0.4 -0.9 0.4-1.8 1-2.8 1.8 -0.1 0.1-0.3 0.1-0.4 0 -0.1-0.1-0.2-0.2-0.3-0.3 -0.1-0.1-0.1-0.2 0.1-0.3 0.6-0.7 1.7-1.5 3.1-2.5 1.4-0.9 2.4-1.6 3-1.8 0.4-0.1 0.7-0.2 1-0.2 0.2 0 0.3 0.3 0.3 1 -0.3 3.8-0.6 6.6-0.9 8.4 -0.1 0.3-0.1 0.5-0.1 0.7 0 0.2 0.1 0.2 0.1 0.1 0.1-0.1 0.2-0.3 0.3-0.6 1.3-2.8 2.7-5 4.2-6.6 1.9-2.1 3.5-3.1 4.8-3.1 2 0 3 1.7 3 5.2 0 1.8-0.4 5.3-1.2 10.6 -0.4 2.5-0.6 4.7-0.6 6.4 0 0.4 0.2 0.6 0.5 0.5 1.3-0.3 2.3-0.7 3.2-1.3 0.1-0.1 0.2-0.1 0.3 0.1C304.3 759 304.4 759.1 304.5 759.3z"/>
  <path d="M317.4 759.4c0 0.1 0 0.2-0.1 0.3 -0.9 0.7-2.2 1.3-3.8 1.9s-3 0.9-4 0.9c-0.4 0-0.6-0.2-0.6-0.6 0-1.6 0.3-4.5 0.9-8.7 0.9-6.9 1.4-10.8 1.4-11.9 0-0.4-0.1-0.5-0.3-0.4 -1.3 0.7-2.4 1.5-3.3 2.2 -0.1 0.1-0.3 0.1-0.4 0 -0.1-0.1-0.2-0.2-0.4-0.4 -0.1-0.1-0.1-0.2 0.1-0.3 1.4-1.4 2.8-2.5 4.3-3.4 1.7-1 2.7-1.5 3.2-1.5 0.2 0 0.4 0.1 0.4 0.4 0 1.2-0.2 3.9-0.7 8.1 -0.3 1.7-0.6 4.2-1 7.4 -0.4 2.8-0.6 4.9-0.6 6.2 0 0.4 0.2 0.5 0.5 0.5 1.2 0 2.5-0.4 3.9-1.3 0.1-0.1 0.3-0.1 0.3 0.1C317.3 759 317.4 759.2 317.4 759.4zM316 730.3c0 1.7-0.8 2.6-2.3 2.6 -1.1 0-1.7-0.7-1.7-2.2 0-0.7 0.2-1.3 0.6-1.8 0.4-0.5 1-0.7 1.6-0.7C315.4 728.2 316 728.9 316 730.3z"/>
  <path d="M337.5 740.2c0 0.2-0.3 0.5-0.8 0.9 -3.3 2.7-7.5 5.4-12.5 8 -0.3 0.1-0.5 0.3-0.6 0.7 -0.1 0.5-0.2 1.3-0.2 2.4 0 2.3 0.5 4.1 1.6 5.3 0.9 1.1 2.1 1.6 3.5 1.6 2.2 0 4.5-1 6.7-3 0.1-0.1 0.2-0.1 0.4-0.1 0.1 0 0.2 0.2 0.3 0.4 0.1 0.2 0.1 0.3 0 0.4 -0.7 1-1.7 1.9-3 2.8 -2.7 1.8-5.1 2.7-7.4 2.7 -1.5 0-2.8-0.9-3.8-2.6 -1.1-1.9-1.7-4.5-1.7-7.7 0-4.4 1.6-8.1 4.9-11.3 2.2-2.2 4.2-3.2 6-3.2 2.5 0 3.9 0.9 4.1 2.7 0.1 0.3 0.2 0.4 0.5 0.4 0.1 0 0.3-0.2 0.7-0.6 0.4-0.4 0.6-0.6 0.7-0.6C337.3 739.6 337.5 739.8 337.5 740.2zM331.9 742.7c0-0.7-0.2-1.4-0.7-1.9 -0.5-0.5-1.1-0.8-1.8-0.8 -1.3 0-2.4 0.4-3.2 1.3 -1 1-1.7 3-2.2 6.1 0 0.2 0 0.4 0.1 0.4 0.1 0 0.2 0 0.3-0.1 2.8-1.3 5.2-2.8 7.3-4.4C331.8 743.3 331.9 743.1 331.9 742.7z"/>
  <path d="M352.6 740.1c0 0.4-0.2 0.7-0.5 1 -0.3 0.3-0.7 0.5-1 0.5 -0.9 0-1.8-0.7-2.5-2.2 -0.2-0.3-0.4-0.4-0.8-0.4 -1 0-1.9 0.3-2.7 1 -0.8 0.7-1.2 1.5-1.2 2.5 0 1.7 0.7 3.1 2 4.2 1.2 1.1 2.3 2 3.3 2.8 2.1 1.8 3.2 4 3.2 6.5 0 1.9-0.8 3.4-2.3 4.6 -1.4 1.1-3.1 1.7-5.2 1.7 -1.9 0-3.5-0.4-4.7-1.1 -1.1-0.7-1.7-1.5-1.7-2.5 0-1.1 0.6-1.6 1.7-1.6 0.8 0 1.7 1.1 2.6 3.4 0.1 0.2 0.3 0.4 0.6 0.5 0.3 0.1 0.7 0.1 1.3 0.1 1.3 0 2.3-0.4 3.2-1.2 0.9-0.8 1.3-1.7 1.3-2.8 0-1.8-0.7-3.4-2.2-4.6 -0.7-0.6-1.7-1.5-3.1-2.6 -2-1.6-3-3.6-3-5.8 0-1.9 0.7-3.4 2-4.6 1.3-1.2 3-1.8 4.9-1.8C351 737.7 352.6 738.5 352.6 740.1z"/>
  <path d="M370.5 738.6c-0.1 0.1-0.2 0.3-0.4 0.7 -0.2 0.3-0.4 0.4-0.8 0.4H364c-0.2 0-0.3 0.1-0.4 0.3 -0.6 3.6-1.4 8.4-2.3 14.4 -0.1 0.7-0.1 1.5-0.1 2.4 0 1.1 0.1 1.8 0.3 2.2 0.4 0.6 0.8 0.9 1.3 0.9 1.1 0 2.5-0.7 4.2-2.2 0.2-0.2 0.4-0.4 0.7-0.6 0.1-0.1 0.2-0.1 0.3 0.1 0.2 0.2 0.3 0.3 0.4 0.5 0 0 0.1 0.1 0.1 0.1 0 0.4-0.9 1.2-2.6 2.4 -2.1 1.5-4.2 2.3-6.1 2.3 -0.6 0-1-0.2-1.3-0.5 -0.5-0.6-0.7-1.6-0.7-3 0-1.7 0.1-3.2 0.3-4.7 0.5-3.5 1.3-8.2 2.3-14.2 0-0.2 0-0.3-0.2-0.3h-2.5c-0.4 0-0.5-0.1-0.5-0.3 0.1-0.2 0.1-0.5 0.2-1 0.1-0.2 0.2-0.3 0.4-0.3h2.5c0.2 0 0.4-0.1 0.4-0.2 0.1-0.2 0.3-1.2 0.6-3.1 0.1-0.5 0.4-0.9 0.9-1 0.4-0.1 1.1-0.3 2.1-0.4 0.2 0 0.3 0 0.4 0.1 0.1 0.1 0.1 0.2 0.1 0.4 -0.4 1.1-0.6 2.3-0.8 3.6 0 0.4 0 0.7 0.2 0.7 0.2 0 1.2 0 3 0s2.8 0 2.9 0C370.5 738.1 370.6 738.3 370.5 738.6z"/>
  <path d="M410.1 731.8c0 0.4-0.1 0.6-0.3 0.6 -0.1 0-0.3-0.2-0.5-0.5 -0.6-0.9-1.3-1.7-2.1-2.3 -1.5-1.3-3.8-1.9-6.9-1.9 -3.8 0-7.1 1.3-9.8 4 -3.7 3.6-5.6 8.8-5.6 15.4 0 4.5 1.2 7.8 3.5 10 2.5 2.3 5.1 3.5 7.9 3.5 1.8 0 3.6-0.3 5.3-0.9 1.5-0.5 2.7-1.1 3.4-1.8 0.4-0.4 1-1.6 1.8-3.8 0.1-0.2 0.3-0.3 0.6-0.3 0.3 0 0.3 0.9 0.1 2.6 -0.1 0.8-0.3 1.5-0.4 2 0 0.2-0.2 0.3-0.5 0.5 -1.3 0.9-3 1.7-5.1 2.4 -2.3 0.7-4.3 1.1-6.1 1.1 -4.4 0-7.8-1.2-10.3-3.6 -2.9-2.8-4.4-6.5-4.4-11.2 0-3.4 0.7-6.6 2.2-9.8 1.4-3.1 3.4-5.7 5.9-7.8 1.4-1.2 3.1-2.2 5.2-3 2.2-0.8 4.3-1.2 6.3-1.2 4.3 0 7.3 0.6 9.1 1.8 0.2 0.1 0.3 0.3 0.3 0.6C410.2 730.2 410.2 731.4 410.1 731.8z"/>
  <path d="M423.2 759.4c0 0.1 0 0.2-0.1 0.3 -0.9 0.7-2.2 1.3-3.8 1.9s-3 0.9-4 0.9c-0.4 0-0.6-0.2-0.6-0.6 0-1.6 0.3-4.5 0.9-8.7 0.9-6.9 1.4-10.8 1.4-11.9 0-0.4-0.1-0.5-0.3-0.4 -1.3 0.7-2.4 1.5-3.3 2.2 -0.1 0.1-0.3 0.1-0.4 0 -0.1-0.1-0.2-0.2-0.4-0.4 -0.1-0.1-0.1-0.2 0.1-0.3 1.4-1.4 2.8-2.5 4.3-3.4 1.7-1 2.7-1.5 3.2-1.5 0.2 0 0.4 0.1 0.4 0.4 0 1.2-0.2 3.9-0.7 8.1 -0.3 1.7-0.6 4.2-1 7.4 -0.4 2.8-0.6 4.9-0.6 6.2 0 0.4 0.2 0.5 0.5 0.5 1.2 0 2.5-0.4 3.9-1.3 0.1-0.1 0.3-0.1 0.3 0.1S423.1 759.2 423.2 759.4zM421.8 730.3c0 1.7-0.8 2.6-2.3 2.6 -1.1 0-1.7-0.7-1.7-2.2 0-0.7 0.2-1.3 0.6-1.8 0.4-0.5 1-0.7 1.6-0.7C421.2 728.2 421.8 728.9 421.8 730.3z"/>
  <path d="M440.4 738.6c-0.1 0.1-0.2 0.3-0.4 0.7 -0.2 0.3-0.4 0.4-0.8 0.4h-5.2c-0.2 0-0.3 0.1-0.4 0.3 -0.6 3.6-1.4 8.4-2.3 14.4 -0.1 0.7-0.1 1.5-0.1 2.4 0 1.1 0.1 1.8 0.3 2.2 0.4 0.6 0.8 0.9 1.3 0.9 1.1 0 2.5-0.7 4.2-2.2 0.2-0.2 0.4-0.4 0.7-0.6 0.1-0.1 0.2-0.1 0.3 0.1 0.2 0.2 0.3 0.3 0.4 0.5 0 0 0.1 0.1 0.1 0.1 0 0.4-0.9 1.2-2.6 2.4 -2.1 1.5-4.2 2.3-6.1 2.3 -0.6 0-1-0.2-1.3-0.5 -0.5-0.6-0.7-1.6-0.7-3 0-1.7 0.1-3.2 0.3-4.7 0.5-3.5 1.3-8.2 2.3-14.2 0-0.2 0-0.3-0.2-0.3h-2.5c-0.4 0-0.5-0.1-0.5-0.3 0.1-0.2 0.1-0.5 0.2-1 0.1-0.2 0.2-0.3 0.4-0.3h2.5c0.2 0 0.4-0.1 0.4-0.2 0.1-0.2 0.3-1.2 0.6-3.1 0.1-0.5 0.4-0.9 0.9-1 0.4-0.1 1.1-0.3 2.1-0.4 0.2 0 0.3 0 0.4 0.1 0.1 0.1 0.1 0.2 0.1 0.4 -0.4 1.1-0.6 2.3-0.8 3.6 0 0.4 0 0.7 0.2 0.7 0.2 0 1.2 0 3 0s2.8 0 2.9 0C440.4 738.1 440.5 738.3 440.4 738.6z"/>
  <path d="M461.1 739.6c-0.1 3.1-1.5 7.4-4.1 13 -2.7 5.6-5.5 10.6-8.5 14.9 -3 4.3-6 6.5-9 6.5 -1.5 0-2.2-0.5-2.2-1.6 0-1 0.6-1.6 1.9-1.6 0.3 0 1.3 0.2 3 0.6 0.2 0.1 0.4 0 0.7-0.2 1.2-0.8 2.7-2.3 4.5-4.5 1.6-2 2.8-3.9 3.6-5.6 0.1-0.2 0.1-0.6 0.1-1 -0.4-2.6-1.3-6-2.5-10.2 -1.3-4.4-2.7-7.5-4.2-9.2 -0.2-0.2-0.4-0.2-0.6-0.1 -0.3 0.2-1.1 0.8-2.3 2 -0.1 0.1-0.2 0.1-0.3 0l-0.1-0.1c0 0-0.1-0.1-0.3-0.3 -0.1-0.1-0.1-0.2-0.1-0.3 1.2-1.4 2.4-2.6 3.6-3.6 0.7-0.5 1.3-0.8 1.8-0.8 0.3 0 0.6 0.3 1 0.8 1.7 2.3 2.9 4.9 3.7 7.9 0.5 1.8 1.3 5.2 2.4 10.3 0.1 0.5 0.3 0.5 0.5 0 1.8-3.5 3-6.3 3.6-8.5 0.5-1.7 0.7-3.6 0.8-5.9 0-1.1-0.1-2-0.3-2.8 -0.1-0.2 0-0.4 0.1-0.5s0.3-0.2 0.5-0.1c0.8 0.1 1.6 0.1 2.2 0 0.2 0 0.3 0 0.4 0.2C461 739.2 461.1 739.4 461.1 739.6z"/>
</svg>