<?xml version="1.0" encoding="utf-8"?>
<!-- Generator: Adobe Illustrator 23.1.1, SVG Export Plug-In . SVG Version: 6.00 Build 0)  -->
<svg version="1.1" xmlns="http://www.w3.org/2000/svg" xmlns:xlink="http://www.w3.org/1999/xlink" x="0px" y="0px"
	 viewBox="0 0 1280 768" style="enable-background:new 0 0 1280 768;" xml:space="preserve">
<style type="text/css">
	.st0{fill:#40250D;}
	.st1{fill:#754C24;}
	.st2{fill:#62401E;}
	.st3{fill:#553211;}
	.st4{fill:#00803C;}
	.st5{fill:#009947;}
</style>
<g id="Layer_4">
	<path class="st0" d="M717.5,605c-18.52,6.21-41.1,11.51-67,13c-10.72,0.62-20.47,0.49-29,0c-25.9-1.49-48.48-6.79-67-13H717.5z"/>
</g>
<g id="Layer_2">
	<polygon class="st1" points="661,386 661,460 636,619 611,619 611,386 	"/>
</g>
<g id="Layer_5">
	<polygon class="st2" points="661,460 661,619 636,619 	"/>
</g>
<g id="Layer_1">
	<g>
		<polygon class="st0" points="707.81,658 706.11,667 565.89,667 564.19,658 		"/>
	</g>
	<g>
		<polygon class="st3" points="706.11,667 688,763 584,763 565.89,667 		"/>
	</g>
	<path class="st3" d="M717.75,605v53h-163.5v-53h0.25c18.52,6.21,41.1,11.51,67,13c8.53,0.49,18.28,0.62,29,0
		c25.9-1.49,48.48-6.79,67-13H717.75z"/>
</g>
<g id="Layer_3">
	<path class="st4" d="M836,236c0,110.46-89.54,200-200,200c-19.91,0-39.14-2.91-57.29-8.32C710.87,421.07,816,311.81,816,178
		c0-11.47-0.77-22.76-2.28-33.82C827.96,171.67,836,202.9,836,236z"/>
	<path class="st5" d="M816,178c0,133.81-105.13,243.07-237.29,249.68C496.17,403.04,436,326.55,436,236c0-110.46,89.54-200,200-200
		c77.36,0,144.46,43.92,177.72,108.18C815.23,155.24,816,166.53,816,178z"/>
</g>
</svg>
