<?xml version="1.0" encoding="utf-8"?>
<!-- Generator: Adobe Illustrator 23.1.1, SVG Export Plug-In . SVG Version: 6.00 Build 0)  -->
<svg version="1.1" xmlns="http://www.w3.org/2000/svg" xmlns:xlink="http://www.w3.org/1999/xlink" x="0px" y="0px"
	 viewBox="0 0 595.3 551.5" style="enable-background:new 0 0 595.3 551.5;" xml:space="preserve">
<style type="text/css">
	.st0{fill:#603913;}
	.st1{fill:#158D44;}
	.st2{fill:#38B04A;}
	.st3{fill:#74C044;}
	.st4{fill:#76C043;}
</style>
<path class="st0" d="M223.6,551.5c51,0,102,0,153,0c-5.3-2.6-12.6-6.7-20.2-13c-4.7-3.8-11.6-9.5-17.3-18
	c-8.8-13.2-10.6-27.2-10.8-36.5c0-36.6,0-73.2,0-109.7c8-7.5,16.7-15.1,26.2-22.6c37.3-29.3,75.1-47.3,106.8-58.7
	c-12.3,0.1-26.7,1-42.8,3.9c-19.5,3.5-36,8.7-49,14c-2.3,2.4-11.3,11.6-24.5,11.5c-0.7,0-15.3-0.3-18.9-8.3c-0.9-2-0.1-2.8-0.9-9.6
	c-0.8-6.7-1.7-10.1-1.6-12.8c0.4-12.4,21.4-47.7,65-79c-11.9,0-31.9,2-51.6,14.1c-6.4,3.9-20.9,12.8-31.4,30
	c-7.9,12.8-7.8,20.8-14.4,22.7c-10.5,3-24-13.6-30-20.9c-10.3-12.7-25.2-35.6-32.4-72.4c-2,15.7-3.8,46.8,10,82
	c9.8,24.9,23.7,42.4,33.4,52.8c0.2,3.2,1.3,23.4-11,31.8c-11.4,7.7-27.1,0.9-42.4-5.8c-8.4-3.7-28.2-12.6-45.2-33.7
	c-22.1-27.3-25.3-57.2-26-69.3c-10.6,47.3,5.3,94.6,40.3,119.9c30.6,22.2,65,19.6,75.4,18.4c-0.4,32.6-0.7,65.2-1.1,97.8
	c0.9,9.5,0.8,26.6-8.7,41.9c-5.4,8.6-13.5,16.2-15.9,18.4C232.4,545.3,227.4,549,223.6,551.5z"/>
<path class="st1" d="M131.7,62.8c-5.4-12.9-2.8-27.7,6.5-37.5c10.5-11.1,27.7-13.9,41.9-6.5c1-1.7,8.7-14.8,24.5-17.3
	c12.5-2,25.3,3.3,33.2,13.7c5.9-3.8,20.8-12,41.1-11.6c28.1,0.6,46.3,17.5,50.5,21.7c4-2.3,31.8-17.5,64.2-5.8
	c27.9,10.1,40.1,33.2,42.6,38.3c14.6-5.6,30.9-3.1,42.6,6.5c14.7,12.1,15.1,29.9,15.2,32.5c2.4,0.6,17.9,4.6,25.3,19.5
	c6.8,13.7,4,31-7.2,43.3c2.1,2.1,10.2,11,10.1,23.8c-0.1,13.9-9.9,26.9-24.5,32.5c-133.1-3.1-266.1-6.3-399.2-9.4
	c-0.8-0.3-19.9-6.4-24.5-26c-4.3-18,7.7-31.4,8.7-32.5c-3-5.5-10.4-20.8-6.5-39C81.2,85.4,103.4,66.7,131.7,62.8z"/>
<path class="st2" d="M272,255.7c-1.7-0.4-3.4-0.7-5.1-1.1c-5.2-1.3-19.2-5.7-28.8-19.1c-10.1-14.1-15.4-38.1-2.2-53.4
	c9.4-10.9,23.6-12.1,28.2-12.3c1.7-3.7,6.7-12.8,17.3-18.8c15.9-8.9,32-3.8,34.6-2.9c3.7-5.8,11.6-16.3,25.3-24.5
	c15.6-9.3,30.5-10.7,37.5-10.8c5.8-25.3,29-42.7,54.1-41.1c26.5,1.6,48.2,23.8,49.1,51.2c8.5-1.8,49.5-9.6,80.1,15.9
	c7.8,6.5,28,23.3,23.8,44.8c-2.9,15.3-17.2,27.9-36.1,32.5c0.5,0.5,10.5,10.1,7.9,20.9c-2.5,10.8-16.7,19.3-32.5,15.2
	C441,253.3,356.5,254.5,272,255.7z"/>
<path class="st3" d="M84.5,333.8c-11.5,9-27,10.7-39.7,4.3c-14.2-7.2-22.3-23.4-19.5-39.7c-1.5-0.5-19-6.8-23.8-24.5
	c-4-14.8,2.6-31.3,16.6-40.4c-5.7-11.5-4-25.2,4.3-34.6c8.8-10.1,23.5-13.4,36.1-7.9c0.8-1.9,7.2-16.7,23.8-21.7
	c18-5.4,32.3,5.4,33.7,6.5c0.9-1.5,10.3-16.7,28.4-18c14.5-1.1,28.5,7.2,35.4,20.9c7.2-8.4,18.1-12.4,28.2-10.1
	c13.1,3,22.8,16.4,21.7,31.8c2.4,0.5,20.4,4.3,28.2,20.2c7.9,16.2,1.9,38.2-15.9,51.2c7.9,14.4,4.6,32.2-7.2,41.9
	c-10.1,8.3-24.7,9.5-36.8,2.9c1.3,18.2-10.8,33.9-26.7,36.8c-12.8,2.3-26.4-4-33.9-15.9c-0.4,0.6-10.8,14.6-28.2,13
	C92.7,348.9,85,334.8,84.5,333.8z"/>
<path class="st4" d="M371.4,318c-12.5-16.2-14.1-38-4.3-54.9c12.7-21.8,37.7-23.7,39.7-23.8c1.3-3,16.8-37,49.8-42.6
	c32.8-5.6,69.9,19,80.8,60.6c26.7,5.3,47.9,23.7,54.9,47.6c5.8,19.7,5.2,54.1-20.2,67.1c-20.4,10.5-49.1,3.2-65.7-19.5
	c-2.5,2.2-17.4,15-39,13c-25.5-2.3-38.4-23-39.7-25.3c-3.3,1.1-19.9,6-36.8-2.9C379.3,331.4,373.5,322,371.4,318z"/>
</svg>
