<?xml version="1.0" encoding="utf-8"?>
<!-- Generator: Adobe Illustrator 23.1.1, SVG Export Plug-In . SVG Version: 6.00 Build 0)  -->
<svg version="1.1" id="apple"  xmlns="http://www.w3.org/2000/svg" xmlns:xlink="http://www.w3.org/1999/xlink" x="0px" y="0px"
	 viewBox="0 0 435 510" style="enable-background:new 0 0 435 510;" xml:space="preserve">
<style type="text/css">
	.st6{fill:none;stroke:#754C24;stroke-width:3;stroke-miterlimit:10;}
	.st7{fill:#D41118;}
	.st8{fill:#EC131A;}
	.st9{fill:#00E66B;}
	.st10{fill:#00CC5F;}
	.st11{fill:#009947;}
</style>
<g>
	<path class="st7" d="M216.09,128.5c-1.05,0.29-1.62,0.42-1.62,0.42s0-0.01-0.01-0.04c-0.21,0.17-0.34,0.26-0.36,0.28
		c0.02-0.07,0.12-0.39,0.3-0.93c-0.02-0.15-0.03-0.33-0.05-0.53c0.07,0.03,0.13,0.06,0.2,0.09
		C215.07,128.02,215.58,128.26,216.09,128.5z"/>
</g>
<g>
	<path class="st7" d="M433.86,279.68c-7.34,83.91-89.65,235.59-173.55,228.25c-8.45-0.74-16.6-3.07-24.4-6.74
		c93.26-35.56,175.27-197.42,183.6-292.68c0.2-2.32,0.37-4.64,0.48-6.95C431.1,225.13,436.29,251.86,433.86,279.68z"/>
</g>
<g>
	<path class="st7" d="M238.64,120.13c-9.11,4.25-16.81,6.74-20.93,7.92C224.45,124.91,231.44,122.26,238.64,120.13z"/>
</g>
<path class="st10" d="M303.75,1.13c0,0-2.4,1.84-6.4,5.31c-9.94,8.6-29.79,27.2-47.44,52.4c-21.86,31.22-33.05,62.14-35.36,68.95
	c-0.06,0.16-0.11,0.31-0.15,0.44c-0.02-0.15-0.03-0.33-0.05-0.53c-0.71-7.55-3.35-48.92,19.06-80.92
	c16.94-24.2,43.81-36.77,59.08-42.3c5.81-2.1,9.95-3.19,11.22-3.5L303.75,1.13z"/>
<path class="st11" d="M285.17,83.02c-12.92,18.46-31.61,30.15-46.53,37.11c-9.11,4.25-16.81,6.74-20.93,7.92
	c-0.01,0.01-0.01,0.01-0.01,0.01c-0.62,0.18-1.16,0.33-1.61,0.44c-1.05,0.29-1.62,0.42-1.62,0.42s0-0.01-0.01-0.04
	c-0.01-0.09-0.03-0.31-0.06-0.65c0.04-0.13,0.09-0.28,0.15-0.44c2.31-6.81,13.5-37.73,35.36-68.95c17.65-25.2,37.5-43.8,47.44-52.4
	c4-3.47,6.4-5.31,6.4-5.31l-0.04-0.15c0.27-0.07,0.41-0.1,0.41-0.1s0.41,3.29,0.55,8.79C305.05,24.9,303.36,57.04,285.17,83.02z"/>
<path class="st10" d="M214.46,128.88c-0.21,0.17-0.34,0.26-0.36,0.28c0.02-0.07,0.12-0.39,0.3-0.93
	C214.43,128.57,214.45,128.79,214.46,128.88z"/>
<path class="st6" d="M214,129c0-35.38-38.02-64-85-64"/>
<g>
	<path class="st8" d="M419.99,201.56c-0.11,2.31-0.28,4.63-0.48,6.95c-8.33,95.26-90.34,257.12-183.6,292.68
		c-6.53-3.06-12.82-7.07-18.86-11.88c-10.55,8.5-21.89,14.55-33.91,17.39c-3.22,0.78-6.49,1.31-9.81,1.6
		C89.42,515.64,7.11,363.96-0.23,280.06c-2.87-32.78,4.86-64.04,20.34-90.41v-0.01c24.15-41.12,67.17-70.33,118.29-74.8
		c26.82-2.35,52.63,2.4,75.57,12.69c0.13,0.05,0.25,0.11,0.38,0.17c0.02,0.2,0.03,0.38,0.05,0.53c-0.18,0.54-0.28,0.86-0.3,0.93
		c0.02-0.02,0.15-0.11,0.36-0.28c0.01,0.03,0.01,0.04,0.01,0.04s0.57-0.13,1.62-0.42c0.11,0.05,0.22,0.1,0.33,0.16
		c0.43-0.21,0.85-0.41,1.28-0.6c0,0,0,0,0.01-0.01c4.12-1.18,11.82-3.67,20.93-7.92c17.83-5.29,36.94-7.38,56.59-5.66
		C351.31,119.38,397.63,154.05,419.99,201.56z"/>
</g>
</svg>
